<svg width="689" height="696" viewBox="0 0 689 696" fill="none" xmlns="http://www.w3.org/2000/svg">
<g filter="url(#filter0_d)">
<path d="M412.939 683.127C411.464 683.338 409.988 683.667 408.513 683.738C406.493 683.738 404.35 683.738 402.269 683.738H20.4813C17.5107 683.738 14.5401 683.597 11.5494 683.503C10.9667 683.424 10.421 683.131 9.99196 682.666C9.56292 682.201 9.27309 681.589 9.16484 680.919C9.16484 680.566 9.02339 680.237 9.00318 679.908C9.00318 669.853 9.00318 659.822 9.00318 649.767C8.96631 648.722 9.25131 647.696 9.80694 646.873C10.3626 646.051 11.1524 645.485 12.0344 645.279C18.905 642.93 25.7757 640.581 32.6262 638.231C53.7839 631.042 74.6991 623.031 95.1697 613.446C124.272 600.035 151.972 582.83 177.739 562.16C200.755 543.595 221.868 522.029 240.667 497.883C259.975 472.888 276.913 445.549 291.186 416.338C306.127 385.985 320.562 355.303 334.492 324.292C368.724 248.612 402.896 172.901 437.006 97.1592C443.493 82.7344 449.919 68.2861 456.426 53.8847C457.942 50.5017 459.478 47.1187 461.256 43.9236C466.161 34.7749 472.744 26.9987 480.534 21.1506C488.324 15.3025 497.129 11.5268 506.32 10.0934C510.153 9.4313 514.024 9.1093 517.899 9.13016C544.102 9.13016 570.325 9.13016 596.568 9.13016C599.276 8.8258 602.009 9.05615 604.651 9.81146C605.116 14.1577 603.378 17.9401 602.267 21.84C592.836 54.9967 583.352 88.13 573.814 121.24L415.344 673.119C414.414 676.431 413.747 679.814 412.939 683.127Z" fill="#01C2CB"/>
<path d="M404.856 683.398C405.664 680.086 406.331 676.703 407.26 673.437L565.731 121.558C575.229 88.4327 584.713 55.2994 594.183 22.1583C595.295 18.2585 597.033 14.4761 596.568 10.1298C598.302 9.72526 600.057 9.45839 601.822 9.33105C625.358 9.33105 648.9 9.33105 672.449 9.33105C673.911 9.40685 675.358 9.70704 676.753 10.2238C677.218 10.3648 677.622 11.14 677.824 11.7274C678.006 12.3791 678.048 13.0729 677.945 13.7478C676.025 27.0449 674.045 40.3186 672.146 53.6862C670.125 68.0171 668.104 82.3715 666.083 96.7023C664.628 106.922 663.072 117.141 661.597 127.361C660.122 137.581 658.687 147.824 657.232 158.067C655.777 168.31 654.342 178.529 652.867 188.749C651.392 198.968 649.876 209.211 648.381 219.431C646.744 230.684 645.087 241.914 643.491 253.191C641.47 267.498 639.449 281.852 637.428 296.183C635.973 306.403 634.417 316.622 632.942 326.724C631.467 336.826 630.053 347.21 628.577 357.43L623.99 389.146C622.535 399.365 621.1 409.608 619.625 419.828L615.038 451.544L610.673 482.249C609.218 492.469 607.783 502.712 606.308 512.932L601.741 544.647L597.356 575.33L592.789 607.045L588.404 637.751C586.882 648.323 585.353 658.887 583.817 669.443C583.433 672.169 582.867 674.87 582.524 677.619C581.735 683.704 581.19 684.08 575.451 684.056C574.562 684.056 573.673 684.056 572.783 684.056C519.731 684.056 466.685 684.056 413.646 684.056C410.777 684.056 407.806 683.751 404.856 683.398Z" fill="#649AAE"/>
</g>
<defs>
<filter id="filter0_d" x="0" y="0" width="689" height="695.057" filterUnits="userSpaceOnUse" color-interpolation-filters="sRGB">
<feFlood flood-opacity="0" result="BackgroundImageFix"/>
<feColorMatrix in="SourceAlpha" type="matrix" values="0 0 0 0 0 0 0 0 0 0 0 0 0 0 0 0 0 0 127 0"/>
<feOffset dx="1" dy="1"/>
<feGaussianBlur stdDeviation="5"/>
<feColorMatrix type="matrix" values="0 0 0 0 0 0 0 0 0 0 0 0 0 0 0 0 0 0 0.25 0"/>
<feBlend mode="normal" in2="BackgroundImageFix" result="effect1_dropShadow"/>
<feBlend mode="normal" in="SourceGraphic" in2="effect1_dropShadow" result="shape"/>
</filter>
</defs>
</svg>
