<svg width="2827" height="700" viewBox="0 0 2827 700" fill="none" xmlns="http://www.w3.org/2000/svg">
<path d="M2163.13 644.911C2163.13 642.634 2163.37 640.331 2163.37 638.054C2163.08 585.55 2163.37 533.046 2162.4 480.569C2161.12 405.294 2161.95 330.045 2161.74 254.797C2161.53 179.548 2161.74 104.247 2161.74 28.9726C2161.74 12.9021 2161.3 14.5772 2176.13 14.5249C2182.31 14.5249 2188.48 14.6819 2194.63 14.8389C2195.39 14.9369 2196.1 15.2856 2196.65 15.8302C2197.19 16.3749 2197.54 17.0848 2197.64 17.8489C2197.79 21.6964 2197.98 25.5439 2197.98 29.3913C2197.98 91.1606 2197.51 152.93 2198.34 214.673C2198.97 259.429 2198.84 304.212 2199.05 348.969C2199.26 393.725 2199.21 437.749 2199.26 482.139L2199.47 672.053C2199.47 675.901 2199.31 679.748 2199.13 683.596C2198.96 684.546 2198.49 685.417 2197.78 686.081C2197.08 686.745 2196.19 687.167 2195.23 687.286C2193.69 687.286 2192.14 687.495 2190.6 687.495C2176.65 687.495 2162.76 687.495 2148.93 687.495C2147.38 687.603 2145.83 687.497 2144.32 687.181C2142.85 686.779 2141.5 686.014 2140.4 684.957C2139.16 683.482 2138.09 681.875 2137.2 680.167L2104.35 625.7L2037.56 514.62L1979.79 418.354L1913.69 308.164C1894.05 275.43 1874.37 242.696 1854.67 209.962C1829.81 168.643 1804.98 127.297 1780.16 85.9259C1774.2 76.0324 1768.17 66.1563 1762.08 56.2976C1761.82 55.8788 1760.78 55.8788 1760.09 55.8003C1759.96 55.8003 1759.68 56.35 1759.6 56.6902C1759.43 57.43 1759.32 58.1831 1759.28 58.9411C1759.28 60.0927 1759.28 61.2706 1759.28 62.4222C1759.6 151.202 1760.12 239.983 1760.25 328.763C1760.41 443.402 1760.41 558.042 1760.25 672.681C1760.25 676.529 1760.09 680.376 1759.94 684.224C1759.81 684.983 1759.45 685.684 1758.91 686.229C1758.36 686.773 1757.66 687.134 1756.9 687.26C1755.76 687.429 1754.61 687.534 1753.45 687.574C1744.97 687.574 1736.47 687.574 1728 687.574C1724.07 687.574 1723.31 685.48 1723.18 682.339C1723.05 679.199 1723.18 676.921 1723.18 674.226V28.0303C1723.18 24.9419 1723.18 21.8534 1723.18 18.7649C1723.19 18.1861 1723.31 17.6146 1723.55 17.0861C1723.78 16.5575 1724.13 16.0832 1724.55 15.6928C1724.98 15.3023 1725.48 15.0041 1726.03 14.8166C1726.58 14.6292 1727.16 14.5566 1727.73 14.6034C1734.3 14.6034 1740.81 14.6034 1747.41 14.6034C1756.67 14.6034 1765.93 14.6034 1775.22 14.6034C1776.75 14.5341 1778.28 14.9191 1779.6 15.7102C1780.92 16.5014 1781.98 17.6638 1782.65 19.0529C1789.76 30.9879 1796.91 42.8968 1804.1 54.7796L1860.87 149.004L1919.99 247.154L1976.73 341.378C1996.25 373.764 2015.77 406.149 2035.28 438.534C2054.19 469.942 2073.09 501.35 2092 532.758C2113.5 568.424 2135.04 604.09 2156.62 639.755C2157.82 641.713 2159.19 643.569 2160.7 645.304C2161.04 645.356 2162.14 644.99 2163.13 644.911V644.911Z" fill="#669BB0"/>
<path d="M836.372 700C805.973 699.529 778.478 696.6 751.821 687.708C731.971 681.265 713.283 671.685 696.465 659.331C676.084 643.964 659.151 624.497 646.76 602.184C636.37 583.67 628.546 563.829 623.503 543.207C619.272 526.376 616.463 509.22 615.106 491.919V490.742C615.174 489.99 615.487 489.28 615.998 488.723C616.508 488.165 617.187 487.79 617.931 487.656C628.395 487.656 638.807 487.656 649.167 487.656C649.922 487.803 650.618 488.17 651.167 488.709C651.716 489.248 652.094 489.937 652.254 490.69C653.3 498.693 654.059 506.775 655.419 514.752C659.553 541.105 668.871 566.377 682.835 589.107C706.772 627.292 740.964 651.144 784.652 661.711C798.928 665.077 813.519 666.927 828.183 667.229C851.737 668.031 875.285 665.46 898.111 659.592C914.574 655.341 930.356 648.79 944.99 640.134C978.999 619.76 1001.55 590.441 1011.59 552.073C1018.85 524.69 1019.21 495.933 1012.62 468.381C1004.77 434.799 985.905 409.037 957.076 390.363C940.731 380.054 922.81 372.483 904.023 367.949C888.69 364.026 873.035 361.487 857.248 360.365C843.775 359.397 830.302 358.613 816.777 358.717C814.861 358.772 812.945 358.587 811.074 358.168C810.553 358.004 810.082 357.712 809.702 357.32C809.323 356.927 809.048 356.445 808.903 355.919C808.589 350.923 808.458 345.928 808.484 340.906C808.484 325.214 806.732 326.469 822.611 326.548C838.821 326.747 855 325.071 870.825 321.552C901.381 314.517 929.242 301.858 953.257 281.485C978.502 260.064 995.323 233.466 1001.78 200.8C1004.29 188.704 1005.17 176.329 1004.4 164.001C1003.66 148.971 1000.91 134.107 996.239 119.801C986.296 90.1685 965.098 65.6322 937.22 51.4867C918.994 42.108 899.154 36.2684 878.752 34.2774C862.236 32.4055 845.562 32.4055 829.047 34.2774C800.859 37.0146 773.841 46.9186 750.565 63.0468C726.577 80.2472 708.013 103.952 697.067 131.361C689.486 149.528 684.629 168.713 682.652 188.298C682.286 191.75 681.737 195.177 681.24 198.603C681.177 199.37 680.855 200.093 680.327 200.653C679.8 201.214 679.098 201.579 678.336 201.689C667.872 201.689 657.407 201.689 647.126 201.689C646.361 201.61 645.649 201.261 645.117 200.705C644.585 200.149 644.268 199.423 644.223 198.655C644.981 191.358 645.452 184.035 646.629 176.816C649.78 155.831 655.755 135.367 664.392 115.982C686.681 67.2837 722.852 33.4405 772.906 14.4528C790.63 7.9703 809.078 3.67544 827.843 1.66348C849.337 -0.769934 871.05 -0.532743 892.486 2.36963C915.9 5.16558 938.645 12.0342 959.692 22.6651C981.147 33.4643 999.814 49.0747 1014.24 68.2776C1028.07 86.9407 1037.5 108.488 1041.84 131.309C1045.8 150.615 1046.59 170.438 1044.16 189.998C1041.66 210.335 1035.29 230.006 1025.41 247.955C1006.64 282.062 976.984 308.895 941.171 324.168C933.046 327.716 924.711 330.765 916.214 333.295C915.272 333.583 914.827 334.211 915.167 334.891C915.425 335.568 915.892 336.146 916.501 336.539C917.947 337.052 919.423 337.471 920.923 337.794C932.897 340.773 944.668 344.521 956.161 349.014C967.617 353.641 978.588 359.388 988.914 366.171C1005.2 376.639 1019.24 390.23 1030.24 406.157C1041.23 422.085 1048.96 440.033 1052.98 458.965C1060.59 491.407 1060.05 525.226 1051.41 557.409C1043.84 585.883 1029.1 611.942 1008.59 633.098C985.565 656.661 957.212 674.342 925.919 684.648C902.942 692.682 878.94 697.411 854.632 698.692C847.751 699.346 840.819 699.738 836.372 700V700Z" fill="#05C3CC"/>
<path d="M133.803 430.5C131.385 434.508 129.506 438.817 128.215 443.316C100.068 519.414 71.9478 595.52 43.8534 671.635C43.5923 672.366 43.279 673.071 42.9918 673.775C37.7698 686.983 40.6157 685.417 25.9419 685.469C17.8739 685.469 9.80589 685.261 1.73789 685.13C0.824036 685.13 -0.220366 683.486 0.0407346 682.52C0.589046 680.693 1.08514 678.813 1.764 677.038C4.74054 669.208 7.79542 661.22 10.7981 653.311L100.486 418.388L186.101 194.22L250.332 26.1194C251.298 23.5092 252.159 21.0555 253.282 18.6019C253.987 17.3424 254.8 16.146 255.71 15.0258C266.363 14.295 293.361 14.3472 302.16 15.0258C304.11 16.8776 305.464 19.2673 306.05 21.8908C315.172 46.0095 324.284 70.1109 333.388 94.1948L424.12 334.912L520.727 590.717C531.049 618.038 541.337 645.385 551.589 672.757C552.817 675.994 553.887 679.283 555.01 682.546C555.271 683.329 554.018 684.973 553.156 685.156C552.764 685.156 552.399 685.391 552.033 685.391C541.241 685.391 530.466 685.391 519.709 685.391C518.734 685.4 517.781 685.106 516.981 684.549C516.181 683.993 515.574 683.202 515.244 682.285C513.86 679.127 512.633 675.864 511.458 672.627L433.389 465.347C429.473 454.906 425.556 444.465 421.614 434.024C421.251 432.726 420.442 431.598 419.329 430.839C418.216 430.08 416.871 429.738 415.53 429.873C412.919 429.873 410.125 429.873 407.436 429.873C320.019 429.873 232.603 429.873 145.186 429.873C141.382 429.509 137.544 429.72 133.803 430.5ZM406.731 397.141C406.892 395.902 406.892 394.647 406.731 393.408C405.817 390.459 404.668 387.613 403.598 384.716L353.727 249.531C329.915 185.006 306.077 120.489 282.212 55.9807C281.429 53.8403 280.384 51.7782 279.418 49.69C279.418 49.4551 278.844 49.2985 278.53 49.1679C278.361 49.0681 278.172 49.0071 277.976 48.9891C277.78 48.9712 277.583 48.9968 277.398 49.0642C277.213 49.1316 277.046 49.239 276.907 49.3788C276.769 49.5186 276.664 49.6873 276.598 49.8727C275.006 53.762 273.282 57.7035 271.82 61.5666C248.06 124.891 224.335 188.225 200.644 251.567L149.677 387.561C148.868 389.728 148.111 391.92 147.38 394.087C147.21 394.429 147.128 394.809 147.142 395.191C147.156 395.573 147.265 395.946 147.46 396.275C147.654 396.604 147.928 396.88 148.256 397.077C148.584 397.273 148.956 397.385 149.338 397.402C153.176 397.402 157.171 397.585 160.879 397.585C222.829 397.585 284.779 397.585 346.73 397.585C363.675 397.585 380.673 397.585 397.54 397.585C400.517 397.585 403.545 397.297 406.731 397.141Z" fill="#06C4CC"/>
<path d="M1144.15 661.532C1145.72 659.86 1147 658.397 1148.37 657.064L1280.02 528.19C1312.57 496.311 1345.28 464.563 1377.71 432.527C1397.2 413.269 1416.53 393.828 1435.41 374.021C1453.98 354.898 1471.34 334.652 1487.4 313.399C1498.44 298.999 1508.18 283.653 1516.49 267.54C1532.67 236.151 1539.12 200.68 1535.01 165.633C1533.64 152.6 1530.78 139.765 1526.49 127.378C1516.28 97.1029 1495.64 71.4057 1468.23 54.8403C1454.68 46.5618 1439.81 40.6415 1424.27 37.333C1395.05 30.8281 1364.73 31.1411 1335.66 38.2476C1290.36 49.5359 1256.73 76.0319 1234.14 116.638C1222.61 137.637 1214.77 160.447 1210.96 184.08C1209.78 190.9 1209.09 197.825 1208.18 204.697C1207.99 206.213 1207.83 207.754 1207.6 209.27C1207.56 210.434 1207.07 211.539 1206.23 212.345C1205.38 213.152 1204.26 213.596 1203.09 213.582C1197.29 213.582 1191.47 213.582 1185.67 213.582C1181.79 213.582 1177.8 213.582 1174.05 213.582C1173.47 213.631 1172.89 213.545 1172.36 213.331C1171.82 213.117 1171.34 212.78 1170.96 212.348C1170.57 211.916 1170.3 211.401 1170.15 210.844C1170.01 210.286 1169.99 209.703 1170.11 209.139C1171.27 198.034 1172.53 186.929 1174.7 175.954C1178.67 155.502 1185.17 135.621 1194.06 116.769C1207.55 87.576 1227.85 62.0166 1253.27 42.2194C1275.41 25.1355 1300.99 13.0058 1328.26 6.65614C1354.66 0.336201 1381.94 -1.50129 1408.95 1.22105C1423.58 2.62804 1438.06 5.29458 1452.23 9.19077C1468.66 13.7326 1484.35 20.6337 1498.79 29.6769C1526.88 47.1825 1548.87 72.8975 1561.74 103.312C1569.35 120.637 1574.13 139.067 1575.88 157.898C1576.56 165.58 1577.4 173.263 1577.51 180.945C1577.79 207.222 1572.78 233.29 1562.79 257.611C1553.71 279.32 1542.13 299.908 1528.3 318.965C1515.24 337.151 1501.18 354.598 1486.17 371.225C1471.06 388.288 1455.3 404.75 1438.96 420.716C1414.16 445.104 1389.26 469.37 1364.28 493.515C1342.68 514.419 1321.06 535.384 1299.41 556.41L1212.84 640.21C1204.24 648.546 1202.82 650.453 1204.27 651.551C1208.33 654.529 1213.13 653.092 1217.59 653.118C1333.01 653.118 1448.34 653.118 1563.58 653.118C1568.82 653.118 1574.39 651.629 1579.32 654.477C1580.81 659.39 1579.97 664.407 1580.1 669.371C1580.1 673.604 1580.1 677.838 1579.89 682.071C1579.79 682.832 1579.45 683.542 1578.92 684.096C1578.39 684.651 1577.69 685.021 1576.93 685.154C1575.78 685.154 1574.62 685.415 1573.47 685.441C1570.37 685.441 1567.28 685.441 1564.18 685.441C1429.13 685.441 1294.06 685.441 1158.97 685.441C1140.97 685.441 1143.52 687.323 1143.23 670.286C1143.23 668.352 1143.23 666.445 1143.23 664.511C1143.65 663.884 1143.88 663.231 1144.15 661.532V661.532Z" fill="#06C4CC"/>
<path d="M2339.22 684.843C2325.27 685.657 2311.28 685.718 2297.32 685.026C2297.14 684.321 2296.62 683.381 2296.88 682.912C2297.99 680.906 2299.22 678.971 2300.57 677.117C2361.82 592.093 2423.09 507.095 2484.38 422.124L2528.9 360.235C2530.71 357.625 2532.49 355.223 2534.14 352.718C2534.75 351.963 2535.1 351.035 2535.14 350.068C2535.18 349.1 2534.91 348.145 2534.37 347.34C2532.72 344.73 2531.02 342.12 2529.32 339.51L2459.24 234.866C2412.73 165.434 2366.25 95.9841 2319.79 26.5172C2317.65 23.3327 2315.79 19.9655 2313.93 16.6244C2313.74 16.2851 2314.45 15.3454 2314.87 14.8233C2315.29 14.3013 2315.6 14.5623 2316 14.5623H2352.74C2355.83 17.1639 2358.39 20.3369 2360.28 23.9069L2423.39 117.875L2553.49 311.633C2555.09 314.578 2557.13 317.263 2559.54 319.594C2562.45 318.967 2563.49 316.749 2564.78 314.921C2576.82 298.425 2588.83 281.893 2600.81 265.327L2776.97 23.5154C2778.95 20.0461 2781.63 17.0172 2784.83 14.6145C2797.92 14.6145 2811.49 14.6145 2825 14.6145C2825.35 14.6325 2825.69 14.7316 2825.99 14.9037C2826.3 15.0759 2826.56 15.3165 2826.75 15.6064C2826.92 15.94 2827 16.3059 2827 16.6766C2827 17.0473 2826.92 17.4132 2826.75 17.7468C2825.29 20.0177 2823.69 22.1842 2822.07 24.3246C2806.23 45.6763 2790.36 67.0018 2774.46 88.3013L2589.86 336.926C2587.24 340.319 2584.89 343.764 2582.56 347.001C2582.56 350.708 2585.18 352.796 2586.9 355.197C2605.69 381.073 2624.52 406.915 2643.39 432.721L2821.75 677.404C2822.91 678.932 2824 680.517 2825 682.155C2825.16 682.484 2825.24 682.849 2825.22 683.216C2825.21 683.583 2825.1 683.94 2824.91 684.254C2824.72 684.568 2824.45 684.83 2824.13 685.015C2823.81 685.2 2823.46 685.302 2823.09 685.313C2810.36 685.313 2797.61 685.313 2784.85 685.313C2783.51 685.384 2782.17 685.097 2780.97 684.482C2779.78 683.868 2778.77 682.947 2778.04 681.815C2771.16 672.053 2764.19 662.343 2757.3 652.607C2694.46 563.963 2631.67 475.32 2568.94 386.677C2566.5 383.231 2563.86 379.942 2561.21 376.679C2560.93 376.481 2560.6 376.361 2560.26 376.328C2559.91 376.296 2559.57 376.354 2559.25 376.497C2557.36 378.427 2555.61 380.485 2554.01 382.657C2544.6 395.847 2535.25 409.046 2525.94 422.254L2346.16 675.838C2344.23 679.114 2341.9 682.139 2339.22 684.843V684.843Z" fill="#595757"/>
</svg>
