<svg xmlns="http://www.w3.org/2000/svg" viewBox="0 0 4000 4000">
  <path fill="#01C1CA" d="M2362 3998H113c-94 0-94 0-94-95v-94c-1-26 8-38 32-47 148-54 297-105 441-168 432-188 772-486 1028-882 107-165 194-340 275-519l879-1941c56-123 141-214 278-244 19-4 40-8 60-8h509c-29 5-22 31-27 49l-110 377-305 1067-238 827-260 906-219 772z"/>
  <path fill="#649AAD" d="M2362 3998l219-772 260-906 238-827 305-1067 109-377c6-18-1-44 28-49h415c44 0 49 8 43 51l-101 708-95 656-100 705-101 698-88 618-77 529c-4 25-15 35-40 35l-1000-1-15-1z"/>
</svg>
