<svg width="3972" height="1411" viewBox="0 0 3972 1411" fill="none" xmlns="http://www.w3.org/2000/svg">
<path d="M2837.57 247.507C2836.14 252.126 2834.64 256.744 2833.32 261.177C2808.57 346.058 2783.83 430.946 2759.09 515.842C2745.58 562.208 2732.01 608.559 2718.39 654.894C2715.16 665.862 2717.37 664.569 2705.51 664.615C2695.97 664.615 2686.44 664.615 2676.88 664.615C2675.52 664.637 2674.16 664.545 2672.81 664.338C2672.49 664.26 2672.18 664.112 2671.92 663.905C2671.66 663.698 2671.44 663.436 2671.29 663.137C2670.47 661.275 2669.74 659.371 2669.12 657.434L2561.18 319.227L2529.32 219.083C2528.51 216.497 2527.75 213.865 2527.01 211.255C2526.98 210.755 2527.12 210.259 2527.4 209.842C2527.68 209.425 2528.08 209.111 2528.56 208.946C2528.88 208.946 2529.2 208.738 2529.53 208.738C2540.1 208.738 2550.66 208.738 2561.2 208.738C2562.06 208.694 2562.91 208.951 2563.6 209.466C2564.28 209.98 2564.77 210.72 2564.97 211.555L2574 240.811L2627.58 415.376L2689.78 618.272C2690.66 621.181 2691.77 624.022 2692.81 626.885C2692.81 627.116 2693.32 627.254 2693.59 627.393C2694.38 627.762 2695 627.624 2695.23 626.931C2696.13 624.368 2697.08 621.828 2697.84 619.219L2755.03 422.303L2814.48 217.536C2815.13 215.227 2816.05 213.056 2816.79 210.817C2817.8 210.485 2818.83 210.253 2819.89 210.124C2831.8 210.124 2843.71 210.124 2855.65 210.124C2856.33 210.12 2857.01 210.174 2857.68 210.285C2858.36 210.323 2859.02 210.562 2859.56 210.974C2860.1 211.385 2860.51 211.95 2860.73 212.595C2862.16 217.213 2863.57 221.692 2864.91 226.241L2919.86 413.274L2979.73 616.864C2980.67 620.119 2981.69 623.352 2982.77 626.954C2983.81 626.238 2985.08 625.869 2985.22 625.176C2987.45 618.388 2989.59 611.576 2991.62 604.741C3023.62 497.878 3055.59 391.023 3087.55 284.175C3094.08 262.332 3100.52 240.488 3107.04 218.644C3107.77 216.036 3108.64 213.469 3109.64 210.955C3109.99 210.147 3111.08 209.639 3111.95 209.039C3112.26 208.897 3112.61 208.841 3112.95 208.877C3122.83 208.877 3132.7 208.877 3142.57 208.877C3142.9 208.899 3143.22 208.993 3143.51 209.151C3143.8 209.309 3144.06 209.528 3144.26 209.793C3144.46 210.058 3144.6 210.363 3144.67 210.687C3144.74 211.011 3144.74 211.347 3144.67 211.671C3144.02 213.98 3143.38 216.289 3142.66 218.598L3124.49 276.001L3025.21 589.109C3018.11 611.491 3011.06 633.874 3004.04 656.256C3003.42 658.196 3002.79 660.135 3002.08 662.052C3001.79 662.861 3001.24 663.556 3000.53 664.034C2999.81 664.512 2998.96 664.748 2998.1 664.707C2986.88 664.707 2975.65 664.707 2964.4 664.707C2962.09 664.707 2960.86 663.529 2960.1 661.082C2959.34 658.634 2958.72 656.464 2958.05 654.155L2908.48 483.724C2886.03 406.663 2863.56 329.617 2841.06 252.587C2840.7 251.288 2840.2 250.034 2839.56 248.847C2839.19 248.269 2838.4 248.039 2837.57 247.507V247.507Z" fill="#3D6575"/>
<path d="M3964.37 523.555C3964.37 524.645 3964.28 525.733 3964.12 526.811C3956.96 556.346 3943.37 583.939 3924.34 607.628C3898.52 639.285 3865.51 659.697 3826.07 669.972C3801.99 676.3 3776.96 678.255 3752.19 675.745C3699.85 670.526 3656.72 647.828 3623.91 606.473C3607.59 585.459 3595.28 561.616 3587.59 536.139C3582.4 519.573 3578.71 502.571 3576.58 485.34C3574.15 467.118 3573.05 448.743 3573.28 430.362C3573.97 394.687 3579.88 359.959 3593.41 326.777C3604.81 297.852 3622.33 271.738 3644.78 250.232C3672.54 223.684 3707.65 206.125 3745.54 199.849C3765.7 196.273 3786.28 195.783 3806.59 198.394C3855.07 204.813 3894.71 227.026 3924.48 266.257C3939.71 286.724 3951.31 309.655 3958.78 334.051C3964.11 350.928 3967.8 368.28 3969.8 385.866C3971.85 403.451 3972.47 421.174 3971.64 438.859C3971.64 440.221 3971.46 441.56 3971.32 442.923C3971.14 444.816 3970.05 445.763 3967.88 445.809C3964.81 445.809 3961.74 445.809 3958.65 445.809H3622.6C3619.18 445.809 3615.67 445.809 3612.39 445.948C3611.79 445.921 3611.19 446.031 3610.65 446.27C3610.1 446.51 3609.61 446.872 3609.22 447.329C3608.83 447.786 3608.56 448.326 3608.41 448.907C3608.26 449.488 3608.25 450.095 3608.37 450.681C3608.72 457.147 3609 463.612 3609.64 470.031C3611.87 495.138 3617.48 519.83 3626.31 543.436C3633.04 561.308 3642.56 577.995 3654.53 592.873C3676.34 620.42 3707.33 639.197 3741.85 645.773C3773.43 652.194 3806.19 649.241 3836.12 637.276C3868.3 624.576 3892.84 602.779 3910.65 573.269C3917.96 560.981 3923.84 547.896 3928.17 534.269C3929.02 531.683 3929.72 529.05 3930.48 526.464C3931.24 523.878 3932.33 522.955 3934.75 522.931C3938.49 522.931 3942.25 522.931 3945.99 522.931C3950.75 522.931 3955.53 522.931 3960.29 522.931C3961.66 523.032 3963.03 523.24 3964.37 523.555V523.555ZM3773.04 417.339H3925.19C3928.26 417.339 3931.33 417.339 3934.43 417.339C3936.99 417.339 3938.28 415.976 3938.19 413.667C3938.19 412.651 3938.19 411.635 3938 410.619C3936.9 400.482 3936.43 390.299 3934.93 380.163C3932.44 362.311 3928.07 344.773 3921.89 327.84C3916.15 312.194 3908.26 297.427 3898.43 283.968C3884.41 264.551 3865.64 249.056 3843.92 238.964C3815 225.465 3782.58 221.371 3751.22 227.257C3718.43 232.965 3688.26 248.818 3664.96 272.584C3645.72 291.982 3631.11 315.471 3622.2 341.301C3615.06 361.53 3610.64 382.62 3609.07 404.015C3607.93 418.909 3606.53 417.454 3621.97 417.477C3672.29 417.4 3722.64 417.346 3773.04 417.315V417.339Z" fill="#3D6575"/>
<path d="M3404.39 663.437C3402.56 664.525 3400.4 664.933 3398.29 664.592C3389.82 664.338 3381.32 665.285 3372.9 663.968C3372.55 662.925 3372.3 661.85 3372.16 660.759C3372.16 657.711 3372.16 654.64 3372.16 651.523V221.692C3372.16 218.298 3372.16 214.904 3372.39 211.509C3372.45 210.832 3372.75 210.198 3373.23 209.717C3373.71 209.236 3374.34 208.939 3375.02 208.877C3383.89 208.877 3392.73 208.877 3401.57 208.877C3402 208.852 3402.42 208.912 3402.82 209.054C3403.22 209.196 3403.59 209.416 3403.9 209.703C3404.22 209.989 3404.47 210.335 3404.65 210.72C3404.83 211.106 3404.93 211.524 3404.94 211.948C3404.94 215.019 3405.08 218.067 3405.08 221.184C3405.08 244.675 3405.08 268.158 3405.08 291.634C3405.17 293.238 3405.41 294.831 3405.8 296.39C3405.8 296.39 3406.65 296.552 3406.74 296.39C3407.59 294.954 3408.36 293.474 3409.05 291.957C3414.76 278.865 3420.6 265.772 3426.07 252.703C3428.09 248.018 3430.79 243.653 3434.08 239.749C3446.92 223.711 3463.8 211.388 3482.98 204.051C3498.93 197.887 3516.15 195.715 3533.13 197.724C3536.15 198.094 3539.18 198.556 3542.18 199.064C3542.83 199.257 3543.41 199.635 3543.86 200.151C3544.3 200.667 3544.58 201.3 3544.67 201.973C3544.67 209.131 3544.67 216.274 3544.67 223.401C3544.67 225.225 3543.31 226.311 3541.26 226.311C3537.52 226.311 3533.78 226.311 3530.04 226.311C3520.16 226.327 3510.31 227.521 3500.71 229.866C3474.57 236.074 3451.81 252.095 3437.15 274.616C3428.69 287.402 3422.1 301.337 3417.6 315.994C3413.76 328.331 3410.91 340.956 3409.08 353.747C3406.21 373.629 3404.85 393.697 3404.99 413.783C3405.08 493.414 3405.08 573.061 3404.99 652.723C3404.99 656.187 3405.57 659.951 3404.39 663.437Z" fill="#3D6575"/>
<path d="M3213.36 437.058V221.669C3213.36 218.252 3213.49 214.858 3213.63 211.463C3213.73 210.796 3214.05 210.181 3214.54 209.717C3215.03 209.252 3215.66 208.965 3216.33 208.9C3225.57 208.9 3234.69 208.9 3243.86 208.9C3245.03 208.9 3246.16 210.332 3246.35 211.694C3246.53 213.056 3246.56 213.726 3246.58 214.742C3246.58 217.467 3246.58 220.191 3246.58 222.893V650.691C3246.58 654.432 3246.58 658.173 3246.35 661.913C3246.26 662.581 3245.94 663.196 3245.45 663.655C3244.96 664.114 3244.32 664.388 3243.65 664.43C3234.41 664.43 3225.23 664.43 3216.1 664.43C3215.44 664.326 3214.82 664.009 3214.35 663.526C3213.88 663.043 3213.58 662.42 3213.49 661.752C3213.49 658.334 3213.36 654.824 3213.36 651.546V437.058Z" fill="#3D6575"/>
<path d="M3229.15 138.913C3222.59 138.638 3216.39 135.795 3211.91 130.995C3207.43 126.195 3205.01 119.825 3205.18 113.258C3205.35 106.691 3208.09 100.454 3212.82 95.8926C3217.54 91.3311 3223.87 88.8109 3230.44 88.8757C3233.76 88.9085 3237.04 89.6016 3240.09 90.9148C3243.14 92.2279 3245.9 94.1348 3248.21 96.5244C3250.51 98.914 3252.32 101.738 3253.52 104.833C3254.73 107.928 3255.3 111.232 3255.22 114.551C3255.13 117.871 3254.38 121.14 3253.02 124.169C3251.66 127.197 3249.71 129.925 3247.28 132.192C3244.86 134.459 3242.01 136.221 3238.89 137.375C3235.78 138.529 3232.47 139.052 3229.15 138.913V138.913Z" fill="#3D6575"/>
<path d="M1640.67 347.166V42.8098C1640.67 39.4155 1640.67 36.0212 1640.91 32.6269C1640.97 31.5917 1641.43 30.6215 1642.2 29.9259C1642.97 29.2303 1643.98 28.8652 1645.02 28.9093C1653.53 28.9093 1662.03 28.9093 1670.55 28.9093C1671.06 28.9111 1671.57 29.018 1672.03 29.2233C1672.5 29.4286 1672.92 29.728 1673.27 30.1027C1673.61 30.4775 1673.88 30.9196 1674.05 31.4016C1674.22 31.8835 1674.28 32.395 1674.25 32.904C1674.25 36.2983 1674.25 39.7157 1674.25 43.11V288.193C1674.25 291.61 1674.25 295.12 1674.38 298.422C1674.51 299.011 1674.75 299.569 1675.1 300.061C1675.47 300.731 1676.48 300.061 1677.41 298.491C1682.03 289.74 1686.51 280.966 1691.1 272.237C1693.64 267.411 1696.36 262.701 1698.79 257.829C1700.69 254.216 1703.13 250.908 1706.01 248.015C1717.75 235.63 1731.36 225.166 1746.35 217.005C1762.25 208.393 1779.54 202.618 1797.42 199.941C1812.53 197.394 1827.84 196.28 1843.16 196.616C1872.04 197.678 1899.86 203.312 1925.86 216.497C1947.83 227.542 1967.3 242.967 1983.07 261.824C2003.32 286.297 2018.16 314.775 2026.62 345.388C2030.86 360.102 2033.95 375.126 2035.85 390.322C2037.5 401.794 2038.34 413.368 2038.37 424.958C2038.37 431.77 2038.51 438.582 2038.23 445.37C2037.72 457.608 2036.55 469.777 2034.93 481.946C2033.47 493.067 2031.32 504.087 2028.49 514.942C2022.56 538.758 2013.04 561.532 2000.25 582.482C1978.23 618.535 1945.07 646.428 1905.77 661.936C1891.2 667.672 1876.04 671.769 1860.57 674.151C1845.33 676.668 1830.04 676.46 1814.74 676.229C1797.01 675.882 1779.46 672.701 1762.74 666.808C1739.45 658.777 1718.51 645.091 1701.81 626.977C1699.57 624.41 1697.76 621.502 1696.43 618.364C1691.03 607.004 1685.64 595.651 1680.27 584.306C1679.23 582.158 1677.96 580.08 1676.83 578.048C1676.6 577.679 1675.72 577.679 1675.12 577.633C1675.12 577.633 1674.75 578.141 1674.73 578.418C1674.73 581.466 1674.48 584.514 1674.45 587.654V656.071C1674.45 663.83 1674.31 665.053 1666.07 665.007C1659.93 665.007 1653.81 665.007 1647.6 665.007C1641.39 665.007 1640.81 664.014 1640.67 657.664C1640.67 654.593 1640.67 651.522 1640.67 648.428V347.166ZM1674.41 439.898C1674.41 450.104 1674.41 460.31 1674.41 470.539C1674.44 486.186 1675.9 501.797 1678.75 517.182C1682.19 538.039 1689.17 558.155 1699.39 576.663C1713.76 602.858 1736.32 623.616 1763.62 635.752C1784.25 644.823 1806.58 649.381 1829.12 649.121C1834.9 648.989 1840.67 648.511 1846.39 647.689C1852.82 647.045 1859.22 646.074 1865.55 644.78C1883.18 640.72 1899.99 633.692 1915.26 623.998C1923.34 618.924 1930.9 613.078 1937.84 606.542C1959.75 586.176 1974.79 561.4 1985.43 533.714C1996.19 505.452 2000.74 475.988 2001.59 445.97C2001.96 433.387 2001.54 420.793 2000.32 408.264C1998.97 393.71 1996.66 379.262 1993.39 365.015C1988.97 345.763 1982.03 327.176 1972.75 309.736C1961.5 287.858 1945.52 268.756 1925.98 253.811C1911.85 243.063 1895.78 235.159 1878.65 230.536C1864.19 226.613 1849.27 224.618 1834.29 224.602C1826.47 224.713 1818.65 225.229 1810.88 226.149C1797.68 227.523 1784.69 230.532 1772.23 235.108C1747.76 244.016 1726.48 259.963 1711.05 280.942C1702.73 292.166 1695.95 304.461 1690.91 317.495C1684.91 333.047 1680.65 349.217 1678.22 365.708C1675.82 380.483 1674.54 395.42 1674.41 410.388V439.898Z" fill="#679AAF"/>
<path d="M2428.1 209.362C2429.75 209.027 2431.41 208.804 2433.09 208.693C2440.57 208.693 2448.07 208.693 2455.58 208.693C2465 208.693 2465.94 208.046 2462.11 217.813C2452.04 243.467 2442.32 269.259 2432.44 294.982L2398.04 384.55C2389.13 407.733 2380.19 430.908 2371.23 454.076L2336.79 543.621L2310.35 612.2L2285.81 676.022C2279.65 692.231 2273 708.264 2265.86 724.119C2260.71 735.665 2255.35 747.002 2249.44 758.132C2242.1 772.372 2233.61 785.987 2224.05 798.84C2216.64 809.052 2207.91 818.231 2198.07 826.133C2182.51 838.569 2163.29 845.532 2143.38 845.945C2134.51 846.084 2125.67 845.945 2116.8 845.714C2114.41 845.691 2112.03 845.506 2109.67 845.16C2102.95 844.098 2102.28 843.267 2102.33 836.663C2102.33 830.867 2102.33 825.117 2102.33 819.299C2102.33 816.805 2103.96 815.35 2106.23 815.835C2115.99 817.913 2125.9 817.475 2135.76 817.544C2151.92 817.699 2167.62 812.184 2180.13 801.958C2186.54 796.889 2192.36 791.11 2197.47 784.732C2209.41 769.411 2219.52 752.751 2227.6 735.087C2235.5 718.485 2242.1 701.306 2248.87 684.288C2249.72 682.426 2250.4 680.495 2250.92 678.516C2251.27 676.863 2251.27 675.157 2250.92 673.505C2250.41 671.534 2249.73 669.61 2248.89 667.755C2232.42 624.869 2215.94 581.989 2199.46 539.118C2185.85 503.882 2172.22 468.661 2158.57 433.456C2147.06 403.592 2135.58 373.736 2124.14 343.888L2098.19 276.117L2075.77 218.021C2074.92 215.712 2074.32 213.403 2073.63 211.233C2073.65 210.737 2073.81 210.257 2074.09 209.848C2074.37 209.439 2074.76 209.119 2075.22 208.923C2076.24 208.808 2077.23 208.577 2078.24 208.554C2087.48 208.554 2096.72 208.554 2105.84 208.554C2107.03 208.494 2108.22 208.843 2109.19 209.544C2110.16 210.244 2110.87 211.255 2111.19 212.41L2113.32 218.137C2126.08 252.618 2138.84 287.077 2151.62 321.513C2159.77 343.541 2167.78 365.593 2175.98 387.598L2212.6 486.148C2220.17 506.56 2227.72 526.988 2235.24 547.431L2265.68 629.748C2266.29 631.307 2267.07 632.8 2267.98 634.205C2268.25 634.312 2268.54 634.355 2268.82 634.331C2269.11 634.307 2269.38 634.216 2269.62 634.066C2270.4 632.969 2271.04 631.783 2271.54 630.533L2290.36 579.734C2303.5 544.329 2316.65 508.923 2329.79 473.518C2337.94 451.49 2345.95 429.438 2354.13 407.41C2366.44 374.236 2378.75 341.071 2391.07 307.913C2396.86 292.28 2402.61 276.602 2408.31 260.946C2414.02 245.291 2419.86 229.705 2425.79 214.096C2426.58 212.641 2427.32 211.117 2428.1 209.362V209.362Z" fill="#679BB0"/>
<path d="M1210.43 842.92C1210.29 840.772 1210.01 838.787 1210.01 836.778C1210.01 830.659 1210.01 824.517 1210.19 818.305C1210.21 817.883 1210.33 817.471 1210.52 817.097C1210.72 816.723 1211 816.398 1211.33 816.144C1211.67 815.89 1212.06 815.714 1212.48 815.629C1212.89 815.544 1213.32 815.551 1213.73 815.65C1214.07 815.65 1214.42 815.65 1214.74 815.788C1226.53 817.684 1238.5 818.095 1250.39 817.012C1262.35 816.068 1273.82 811.876 1283.57 804.89C1291.66 799.192 1298.88 792.355 1305.02 784.593C1313.48 773.911 1320.92 762.453 1327.23 750.373C1335.49 734.721 1342.86 718.608 1349.28 702.114C1352.67 693.57 1355.97 685.004 1359.21 676.714C1358.5 672.209 1357.12 667.836 1355.12 663.737C1342.21 630.04 1329.24 596.382 1316.22 562.762L1223.29 321.789L1182.95 216.982C1182.21 215.088 1181.61 213.125 1180.96 211.186C1180.88 210.699 1180.98 210.2 1181.23 209.777C1181.49 209.353 1181.88 209.035 1182.35 208.877C1183.37 208.877 1184.36 208.553 1185.37 208.553C1194.61 208.553 1203.81 208.553 1212.96 208.553C1214.09 208.622 1215.21 208.76 1216.31 208.969C1217.24 210.295 1218.06 211.693 1218.76 213.148C1221.07 219.175 1223.38 225.271 1225.5 231.321L1324.11 497.439C1340.18 540.819 1356.25 584.213 1372.32 627.624C1373.13 629.933 1374.14 631.988 1375.11 634.158C1375.19 634.292 1375.3 634.404 1375.44 634.484C1375.57 634.565 1375.72 634.611 1375.88 634.62C1376.45 634.62 1377.35 634.389 1377.54 633.997C1378.55 631.841 1379.48 629.648 1380.31 627.416L1478.76 361.251C1496.32 313.7 1513.93 266.157 1531.58 218.621C1532.41 216.312 1533.13 214.003 1534.12 211.948C1534.78 210.767 1535.56 209.653 1536.43 208.623C1547.47 208.623 1558.37 208.623 1569.24 208.623C1571.16 208.623 1571.96 210.216 1571.25 212.294C1570.69 213.91 1570.12 215.504 1569.49 217.097L1553.33 259.006L1473.75 465.736C1447.21 534.653 1420.69 603.571 1394.18 672.489C1384.95 696.295 1375.37 719.94 1364.17 742.868C1355.46 761.352 1345.16 779.044 1333.39 795.746C1327.04 804.616 1319.83 812.845 1311.88 820.314C1300.96 830.678 1287.67 838.217 1273.18 842.273C1267.29 843.976 1261.24 845.051 1255.12 845.483C1244.23 846.133 1233.31 846.056 1222.43 845.252C1218.32 845.229 1214.25 844.438 1210.43 842.92Z" fill="#06C4CC"/>
<path d="M996.883 16.8328C997.424 17.7086 997.814 18.6685 998.038 19.6729C998.038 27.1543 998.038 34.6356 998.038 42.1169C998.038 42.4514 997.971 42.7825 997.842 43.0909C997.712 43.3993 997.523 43.6788 997.284 43.9131C997.046 44.1475 996.763 44.3319 996.452 44.4556C996.141 44.5794 995.809 44.6399 995.475 44.6338C993.166 44.3567 990.857 44.0565 988.41 43.6871C977.325 41.7835 966.039 41.341 954.84 42.3709C949.757 42.9185 944.743 43.9863 939.878 45.5574C931.698 48.0448 924.198 52.3782 917.957 58.2233C911.716 64.0683 906.901 71.2689 903.884 79.2696C900.684 87.1642 898.677 95.491 897.927 103.976C896.534 118.203 895.879 132.492 895.964 146.786C896.172 165.513 895.964 184.239 895.964 202.942C895.921 205.319 896.052 207.696 896.357 210.054C896.506 210.515 896.764 210.932 897.11 211.27C897.456 211.608 897.879 211.856 898.342 211.994C901.04 212.302 903.754 212.449 906.47 212.433C930.297 212.433 954.155 212.433 978.043 212.433C990.672 212.433 989.726 211.347 989.749 223.793C989.749 228.227 989.749 232.637 989.61 237.07C989.557 237.924 989.177 238.724 988.549 239.304C987.922 239.885 987.094 240.201 986.24 240.187C983.169 240.187 980.098 240.326 977.004 240.326C953.146 240.326 929.289 240.326 905.431 240.326C895.734 240.326 895.849 240.049 895.918 249.839V652.169C895.918 666.139 897.627 664.638 883.427 664.707C877.632 664.707 871.883 664.591 866.065 664.476C865.392 664.431 864.755 664.156 864.259 663.698C863.763 663.24 863.439 662.627 863.341 661.959C863.341 660.943 863.156 659.927 863.156 658.911V253.557C863.156 249.816 862.971 246.099 862.74 242.358C862.644 242.034 862.472 241.738 862.239 241.494C862.007 241.249 861.719 241.062 861.401 240.949C859.747 240.592 858.06 240.406 856.368 240.395C846.14 240.395 835.935 240.395 825.707 240.395C823.005 240.395 820.281 240.395 817.557 240.395C817.044 240.414 816.534 240.32 816.062 240.12C815.59 239.92 815.167 239.619 814.824 239.238C814.481 238.857 814.225 238.406 814.075 237.916C813.925 237.426 813.884 236.908 813.955 236.401C813.955 229.597 813.955 222.793 813.955 215.989C813.952 215.565 814.033 215.145 814.192 214.753C814.352 214.361 814.588 214.005 814.887 213.704C815.185 213.404 815.54 213.165 815.931 213.002C816.322 212.84 816.741 212.756 817.164 212.756C819.473 212.756 821.943 212.617 824.321 212.617C833.164 212.617 842.03 212.617 850.873 212.617C853.597 212.617 856.322 212.617 859.046 212.617C861.771 212.617 862.948 211.324 862.994 209.038C862.994 205.967 862.994 202.919 862.994 199.802C862.994 179.39 862.994 158.97 862.994 138.543C862.89 124.923 863.561 111.309 865.003 97.7651C866.473 83.4478 870.808 69.5725 877.748 56.9641C891.462 32.4189 912.38 18.4029 940.086 14.0619C951.565 12.4677 963.195 12.2816 974.719 13.5077C979.128 13.9003 983.561 14.2928 987.925 14.9394C990.973 15.2626 993.905 16.1401 996.883 16.8328V16.8328Z" fill="#05C4CD"/>
<path d="M1065.08 327.793V41.932C1065.08 38.5377 1065.08 35.1434 1065.34 31.7491C1065.43 31.0766 1065.74 30.4523 1066.22 29.9725C1066.7 29.4927 1067.32 29.1839 1067.99 29.0937C1071.04 28.9782 1074.11 28.8859 1077.23 28.8628C1082.33 28.8628 1087.46 28.8628 1092.56 28.8628C1096.95 28.8628 1097.85 29.8557 1097.94 34.3122C1097.94 37.3832 1097.94 40.4311 1097.94 43.5484V566.226C1097.94 579.156 1098.24 592.087 1098.33 605.018C1098.39 610.129 1099.01 615.217 1100.2 620.188C1100.83 623.182 1101.8 626.095 1103.09 628.87C1104.27 631.338 1105.94 633.536 1108.01 635.328C1110.07 637.119 1112.49 638.466 1115.09 639.284C1119.27 640.784 1123.68 641.519 1128.12 641.455C1134.23 641.293 1140.35 641.062 1146.59 640.854C1147.08 640.936 1147.54 641.131 1147.94 641.424C1148.34 641.716 1148.67 642.098 1148.9 642.54C1148.9 643.232 1149.1 643.902 1149.1 644.572C1149.1 650.367 1149.1 656.117 1149.1 661.936C1149.1 665.399 1147.72 667.039 1144.49 667.431C1131.28 669.002 1118.05 670.133 1104.8 668.032C1101.44 667.496 1098.12 666.724 1094.87 665.723C1089.78 664.199 1085.08 661.592 1081.1 658.08C1077.11 654.569 1073.93 650.236 1071.78 645.38C1068.11 637.297 1066.13 628.554 1065.94 619.68C1065.55 610.837 1065.43 601.993 1065.32 593.126C1065.32 584.629 1065.32 576.131 1065.32 567.726L1065.08 327.793Z" fill="#06C2CB"/>
<path d="M3526.99 1374.09C3526.99 1372.56 3527.15 1371.02 3527.15 1369.5C3526.95 1334.32 3527.15 1299.14 3526.5 1263.98C3525.64 1213.55 3526.2 1163.13 3526.06 1112.71C3525.92 1062.3 3526.06 1011.85 3526.06 961.412C3526.06 950.644 3525.76 951.767 3535.7 951.732C3539.84 951.732 3543.97 951.837 3548.09 951.942C3548.6 952.008 3549.08 952.241 3549.44 952.606C3549.81 952.971 3550.04 953.447 3550.11 953.959C3550.21 956.537 3550.33 959.114 3550.33 961.692C3550.33 1003.08 3550.02 1044.46 3550.58 1085.83C3551 1115.82 3550.91 1145.82 3551.05 1175.81C3551.19 1205.8 3551.16 1235.29 3551.19 1265.03L3551.33 1392.28C3551.33 1394.85 3551.23 1397.43 3551.11 1400.01C3550.99 1400.65 3550.68 1401.23 3550.21 1401.67C3549.74 1402.12 3549.14 1402.4 3548.49 1402.48C3547.46 1402.48 3546.43 1402.62 3545.39 1402.62C3536.04 1402.62 3526.74 1402.62 3517.47 1402.62C3516.44 1402.69 3515.4 1402.62 3514.39 1402.41C3513.4 1402.14 3512.5 1401.63 3511.76 1400.92C3510.93 1399.93 3510.21 1398.86 3509.62 1397.71L3487.6 1361.22L3442.86 1286.8L3404.16 1222.3L3359.86 1148.47C3346.71 1126.54 3333.53 1104.61 3320.32 1082.67C3303.67 1054.99 3287.03 1027.29 3270.4 999.57C3266.41 992.942 3262.37 986.325 3258.29 979.719C3258.12 979.439 3257.42 979.439 3256.96 979.386C3256.87 979.386 3256.68 979.754 3256.63 979.982C3256.51 980.478 3256.44 980.983 3256.42 981.491C3256.42 982.262 3256.42 983.051 3256.42 983.823C3256.63 1043.31 3256.98 1102.79 3257.07 1162.27C3257.17 1239.08 3257.17 1315.89 3257.07 1392.7C3257.07 1395.27 3256.96 1397.85 3256.86 1400.43C3256.77 1400.94 3256.53 1401.41 3256.17 1401.77C3255.8 1402.14 3255.33 1402.38 3254.82 1402.46C3254.06 1402.58 3253.28 1402.65 3252.51 1402.67C3246.83 1402.67 3241.13 1402.67 3235.46 1402.67C3232.83 1402.67 3232.32 1401.27 3232.23 1399.17C3232.14 1397.06 3232.23 1395.54 3232.23 1393.73V960.78C3232.23 958.711 3232.23 956.642 3232.23 954.572C3232.23 954.185 3232.32 953.802 3232.48 953.448C3232.63 953.094 3232.86 952.776 3233.15 952.514C3233.43 952.253 3233.77 952.053 3234.14 951.927C3234.51 951.802 3234.89 951.753 3235.28 951.784C3239.68 951.784 3244.04 951.784 3248.46 951.784C3254.67 951.784 3260.87 951.784 3267.09 951.784C3268.12 951.738 3269.14 951.996 3270.03 952.526C3270.91 953.056 3271.62 953.835 3272.07 954.765C3276.84 962.762 3281.63 970.741 3286.44 978.702L3324.48 1041.83L3364.09 1107.59L3402.11 1170.72C3415.18 1192.42 3428.26 1214.12 3441.33 1235.82C3454 1256.86 3466.66 1277.9 3479.33 1298.95C3493.74 1322.84 3508.17 1346.74 3522.62 1370.64C3523.43 1371.95 3524.35 1373.19 3525.36 1374.35C3525.59 1374.39 3526.32 1374.14 3526.99 1374.09V1374.09Z" fill="#669BB0"/>
<path d="M2638.08 1411C2617.72 1410.68 2599.3 1408.72 2581.44 1402.76C2568.14 1398.45 2555.62 1392.03 2544.35 1383.75C2530.69 1373.46 2519.35 1360.41 2511.05 1345.46C2504.09 1333.06 2498.84 1319.77 2495.47 1305.95C2492.63 1294.67 2490.75 1283.18 2489.84 1271.59V1270.8C2489.89 1270.29 2490.1 1269.82 2490.44 1269.44C2490.78 1269.07 2491.23 1268.82 2491.73 1268.73C2498.74 1268.73 2505.72 1268.73 2512.66 1268.73C2513.17 1268.83 2513.63 1269.07 2514 1269.44C2514.37 1269.8 2514.62 1270.26 2514.73 1270.76C2515.43 1276.12 2515.94 1281.54 2516.85 1286.88C2519.62 1304.54 2525.86 1321.47 2535.22 1336.7C2551.25 1362.29 2574.16 1378.27 2603.43 1385.35C2613 1387.6 2622.77 1388.84 2632.6 1389.04C2648.38 1389.58 2664.16 1387.86 2679.45 1383.93C2690.48 1381.08 2701.05 1376.69 2710.86 1370.89C2733.64 1357.24 2748.75 1337.6 2755.48 1311.89C2760.34 1293.54 2760.58 1274.28 2756.16 1255.82C2750.91 1233.32 2738.27 1216.06 2718.95 1203.54C2708 1196.64 2696 1191.56 2683.41 1188.53C2673.14 1185.9 2662.65 1184.2 2652.07 1183.44C2643.04 1182.8 2634.02 1182.27 2624.96 1182.34C2623.67 1182.38 2622.39 1182.25 2621.14 1181.97C2620.79 1181.86 2620.47 1181.67 2620.22 1181.4C2619.96 1181.14 2619.78 1180.82 2619.68 1180.47C2619.47 1177.12 2619.38 1173.77 2619.4 1170.41C2619.4 1159.89 2618.23 1160.73 2628.86 1160.79C2639.73 1160.92 2650.56 1159.8 2661.17 1157.44C2681.64 1152.73 2700.3 1144.25 2716.39 1130.59C2733.31 1116.24 2744.58 1098.42 2748.91 1076.54C2750.59 1068.43 2751.18 1060.14 2750.66 1051.88C2750.16 1041.81 2748.32 1031.85 2745.19 1022.27C2738.53 1002.41 2724.33 985.974 2705.65 976.496C2693.44 970.212 2680.15 966.3 2666.48 964.966C2655.41 963.712 2644.24 963.712 2633.18 964.966C2614.29 966.8 2596.19 973.435 2580.6 984.241C2564.52 995.766 2552.09 1011.65 2544.75 1030.01C2539.67 1042.18 2536.42 1055.04 2535.09 1068.16C2534.85 1070.47 2534.48 1072.77 2534.15 1075.06C2534.11 1075.58 2533.89 1076.06 2533.54 1076.44C2533.18 1076.81 2532.71 1077.06 2532.2 1077.13C2525.19 1077.13 2518.18 1077.13 2511.29 1077.13C2510.78 1077.08 2510.3 1076.84 2509.95 1076.47C2509.59 1076.1 2509.38 1075.61 2509.35 1075.1C2509.86 1070.21 2510.17 1065.3 2510.96 1060.47C2513.07 1046.41 2517.07 1032.7 2522.86 1019.71C2537.79 987.08 2562.03 964.405 2595.56 951.683C2607.44 947.34 2619.8 944.463 2632.37 943.115C2646.77 941.484 2661.32 941.643 2675.68 943.588C2691.37 945.461 2706.61 950.063 2720.71 957.186C2735.08 964.421 2747.59 974.88 2757.25 987.746C2766.52 1000.25 2772.84 1014.69 2775.74 1029.98C2778.4 1042.91 2778.92 1056.19 2777.3 1069.3C2775.62 1082.92 2771.36 1096.1 2764.73 1108.13C2752.16 1130.98 2732.29 1148.96 2708.3 1159.19C2702.85 1161.57 2697.27 1163.61 2691.58 1165.31C2690.95 1165.5 2690.65 1165.92 2690.88 1166.38C2691.05 1166.83 2691.36 1167.22 2691.77 1167.48C2692.74 1167.82 2693.73 1168.11 2694.73 1168.32C2702.75 1170.32 2710.64 1172.83 2718.34 1175.84C2726.02 1178.94 2733.37 1182.79 2740.28 1187.33C2751.19 1194.35 2760.6 1203.45 2767.97 1214.13C2775.34 1224.8 2780.52 1236.82 2783.21 1249.51C2788.3 1271.24 2787.94 1293.9 2782.16 1315.46C2777.08 1334.54 2767.21 1352 2753.46 1366.18C2738.04 1381.96 2719.04 1393.81 2698.08 1400.71C2682.69 1406.1 2666.6 1409.27 2650.32 1410.12C2645.71 1410.56 2641.06 1410.82 2638.08 1411V1411Z" fill="#05C3CC"/>
<path d="M2167.38 1230.43C2165.76 1233.12 2164.5 1236.01 2163.63 1239.02C2144.77 1290.01 2125.93 1341 2107.11 1392C2106.94 1392.49 2106.73 1392.96 2106.53 1393.43C2103.04 1402.28 2104.94 1401.23 2095.11 1401.26C2089.71 1401.26 2084.3 1401.12 2078.89 1401.04C2078.28 1401.04 2077.58 1399.94 2077.76 1399.29C2078.13 1398.06 2078.46 1396.8 2078.91 1395.62C2080.91 1390.37 2082.95 1385.02 2084.96 1379.72L2145.05 1222.32L2202.41 1072.13L2245.45 959.5C2246.1 957.751 2246.67 956.107 2247.42 954.463C2247.9 953.619 2248.44 952.818 2249.05 952.067C2256.19 951.578 2274.28 951.613 2280.17 952.067C2281.48 953.308 2282.39 954.909 2282.78 956.667C2288.89 972.826 2294.99 988.974 2301.09 1005.11L2361.88 1166.39L2426.61 1337.78C2433.52 1356.09 2440.42 1374.41 2447.29 1392.75C2448.11 1394.92 2448.82 1397.12 2449.58 1399.31C2449.75 1399.83 2448.91 1400.93 2448.33 1401.05C2448.07 1401.05 2447.83 1401.21 2447.58 1401.21C2440.35 1401.21 2433.13 1401.21 2425.93 1401.21C2425.27 1401.22 2424.63 1401.02 2424.1 1400.65C2423.56 1400.28 2423.16 1399.75 2422.93 1399.13C2422.01 1397.01 2421.19 1394.83 2420.4 1392.66L2368.09 1253.78C2365.47 1246.79 2362.85 1239.79 2360.2 1232.8C2359.96 1231.93 2359.42 1231.17 2358.67 1230.66C2357.93 1230.15 2357.03 1229.92 2356.13 1230.02C2354.38 1230.02 2352.51 1230.02 2350.7 1230.02C2292.14 1230.02 2233.57 1230.02 2175 1230.02C2172.45 1229.77 2169.88 1229.91 2167.38 1230.43ZM2350.23 1208.08C2350.34 1207.25 2350.34 1206.41 2350.23 1205.58C2349.62 1203.61 2348.85 1201.7 2348.13 1199.76L2314.72 1109.19C2298.77 1065.95 2282.8 1022.73 2266.81 979.507C2266.28 978.073 2265.58 976.691 2264.94 975.292C2264.94 975.135 2264.55 975.03 2264.34 974.942C2264.23 974.876 2264.1 974.835 2263.97 974.823C2263.84 974.811 2263.71 974.828 2263.58 974.873C2263.46 974.918 2263.35 974.99 2263.25 975.084C2263.16 975.177 2263.09 975.29 2263.05 975.415C2261.98 978.021 2260.82 980.661 2259.84 983.25C2243.93 1025.68 2228.03 1068.11 2212.16 1110.55L2178.01 1201.67C2177.47 1203.12 2176.96 1204.59 2176.47 1206.04C2176.36 1206.27 2176.3 1206.52 2176.31 1206.78C2176.32 1207.03 2176.4 1207.28 2176.53 1207.5C2176.66 1207.72 2176.84 1207.91 2177.06 1208.04C2177.28 1208.17 2177.53 1208.25 2177.78 1208.26C2180.36 1208.26 2183.03 1208.38 2185.52 1208.38C2227.02 1208.38 2268.53 1208.38 2310.03 1208.38C2321.39 1208.38 2332.77 1208.38 2344.08 1208.38C2346.07 1208.38 2348.1 1208.19 2350.23 1208.08Z" fill="#06C4CC"/>
<path d="M2844.29 1385.23C2845.34 1384.11 2846.2 1383.13 2847.12 1382.23L2935.32 1295.89C2957.13 1274.53 2979.05 1253.26 3000.77 1231.79C3013.83 1218.89 3026.78 1205.86 3039.43 1192.59C3051.87 1179.78 3063.5 1166.22 3074.26 1151.98C3081.66 1142.33 3088.18 1132.05 3093.75 1121.25C3104.59 1100.22 3108.91 1076.46 3106.16 1052.97C3105.24 1044.24 3103.32 1035.64 3100.45 1027.34C3093.61 1007.06 3079.78 989.842 3061.42 978.743C3052.34 973.196 3042.38 969.23 3031.96 967.013C3012.39 962.655 2992.07 962.865 2972.6 967.626C2942.25 975.189 2919.72 992.941 2904.58 1020.15C2896.86 1034.22 2891.6 1049.5 2889.05 1065.33C2888.26 1069.9 2887.8 1074.54 2887.19 1079.15C2887.06 1080.16 2886.96 1081.2 2886.8 1082.21C2886.78 1082.99 2886.45 1083.73 2885.88 1084.27C2885.32 1084.81 2884.56 1085.11 2883.78 1085.1C2879.89 1085.1 2875.99 1085.1 2872.11 1085.1C2869.51 1085.1 2866.83 1085.1 2864.32 1085.1C2863.94 1085.13 2863.55 1085.08 2863.19 1084.93C2862.83 1084.79 2862.51 1084.56 2862.25 1084.27C2861.99 1083.98 2861.81 1083.64 2861.71 1083.27C2861.61 1082.89 2861.6 1082.5 2861.69 1082.12C2862.46 1074.68 2863.3 1067.24 2864.76 1059.89C2867.42 1046.19 2871.77 1032.87 2877.73 1020.24C2886.77 1000.68 2900.37 983.551 2917.4 970.287C2932.23 958.841 2949.37 950.714 2967.64 946.46C2985.33 942.225 3003.6 940.994 3021.7 942.818C3031.5 943.761 3041.2 945.547 3050.7 948.158C3061.71 951.201 3072.22 955.825 3081.89 961.884C3100.71 973.612 3115.44 990.841 3124.07 1011.22C3129.17 1022.83 3132.37 1035.17 3133.54 1047.79C3134 1052.94 3134.56 1058.09 3134.63 1063.23C3134.82 1080.84 3131.47 1098.3 3124.77 1114.6C3118.69 1129.14 3110.93 1142.94 3101.66 1155.71C3092.91 1167.89 3083.49 1179.58 3073.44 1190.72C3063.31 1202.15 3052.75 1213.18 3041.8 1223.88C3025.19 1240.22 3008.51 1256.48 2991.77 1272.65C2977.3 1286.66 2962.81 1300.71 2948.31 1314.79L2890.31 1370.94C2884.55 1376.53 2883.6 1377.8 2884.57 1378.54C2887.29 1380.53 2890.51 1379.57 2893.49 1379.59C2970.82 1379.59 3048.09 1379.59 3125.3 1379.59C3128.81 1379.59 3132.54 1378.59 3135.84 1380.5C3136.85 1383.79 3136.28 1387.15 3136.37 1390.48C3136.37 1393.31 3136.37 1396.15 3136.23 1398.99C3136.16 1399.5 3135.93 1399.97 3135.58 1400.34C3135.22 1400.72 3134.75 1400.96 3134.24 1401.05C3133.47 1401.05 3132.7 1401.23 3131.92 1401.25C3129.85 1401.25 3127.78 1401.25 3125.7 1401.25C3035.22 1401.25 2944.72 1401.25 2854.22 1401.25C2842.16 1401.25 2843.87 1402.51 2843.67 1391.09C2843.67 1389.8 2843.67 1388.52 2843.67 1387.22C2843.95 1386.8 2844.11 1386.36 2844.29 1385.23V1385.23Z" fill="#06C4CC"/>
<path d="M3644.97 1400.84C3635.62 1401.39 3626.25 1401.43 3616.9 1400.97C3616.77 1400.5 3616.42 1399.87 3616.6 1399.55C3617.34 1398.21 3618.17 1396.91 3619.07 1395.67C3660.1 1338.7 3701.15 1281.75 3742.22 1224.82L3772.05 1183.36C3773.26 1181.61 3774.45 1180 3775.55 1178.32C3775.96 1177.82 3776.2 1177.19 3776.23 1176.55C3776.26 1175.9 3776.07 1175.26 3775.71 1174.72C3774.61 1172.97 3773.47 1171.22 3772.33 1169.47L3725.38 1099.36C3694.22 1052.84 3663.07 1006.31 3631.95 959.766C3630.51 957.633 3629.26 955.377 3628.02 953.138C3627.9 952.911 3628.37 952.281 3628.65 951.932C3628.93 951.582 3629.14 951.757 3629.4 951.757H3654.02C3656.09 953.5 3657.81 955.626 3659.07 958.018L3701.36 1020.98L3788.52 1150.79C3789.59 1152.77 3790.96 1154.57 3792.57 1156.13C3794.52 1155.71 3795.22 1154.22 3796.08 1153C3804.15 1141.94 3812.2 1130.87 3820.22 1119.77L3938.25 957.755C3939.58 955.431 3941.37 953.401 3943.51 951.792C3952.29 951.792 3961.37 951.792 3970.43 951.792C3970.66 951.804 3970.89 951.87 3971.09 951.985C3971.3 952.101 3971.47 952.262 3971.6 952.456C3971.71 952.68 3971.77 952.925 3971.77 953.173C3971.77 953.422 3971.71 953.667 3971.6 953.89C3970.62 955.412 3969.55 956.863 3968.46 958.297C3957.85 972.603 3947.22 986.891 3936.57 1001.16L3812.89 1167.74C3811.14 1170.01 3809.56 1172.32 3808 1174.49C3808 1176.97 3809.75 1178.37 3810.91 1179.98C3823.49 1197.32 3836.11 1214.63 3848.75 1231.92L3968.25 1395.86C3969.03 1396.88 3969.76 1397.95 3970.43 1399.04C3970.54 1399.26 3970.59 1399.51 3970.58 1399.75C3970.57 1400 3970.49 1400.24 3970.37 1400.45C3970.24 1400.66 3970.06 1400.84 3969.85 1400.96C3969.63 1401.08 3969.39 1401.15 3969.15 1401.16C3960.62 1401.16 3952.08 1401.16 3943.53 1401.16C3942.63 1401.21 3941.73 1401.01 3940.93 1400.6C3940.13 1400.19 3939.45 1399.57 3938.97 1398.82C3934.35 1392.28 3929.69 1385.77 3925.07 1379.25C3882.97 1319.86 3840.9 1260.46 3798.87 1201.07C3797.24 1198.76 3795.47 1196.56 3793.7 1194.38C3793.51 1194.24 3793.29 1194.16 3793.05 1194.14C3792.82 1194.12 3792.59 1194.16 3792.38 1194.25C3791.12 1195.55 3789.94 1196.92 3788.87 1198.38C3782.57 1207.22 3776.3 1216.06 3770.06 1224.91L3649.62 1394.81C3648.32 1397.01 3646.76 1399.03 3644.97 1400.84V1400.84Z" fill="#595757"/>
<g filter="url(#filter0_d)">
<path d="M400.863 663.097C399.432 663.302 398.001 663.622 396.57 663.69C394.609 663.69 392.531 663.69 390.512 663.69H20.138C17.2563 663.69 14.3745 663.553 11.4732 663.462C10.9079 663.386 10.3785 663.101 9.9623 662.65C9.54609 662.199 9.26492 661.605 9.15992 660.955C9.15992 660.613 9.02269 660.294 9.00308 659.974C9.00308 650.218 9.00308 640.485 9.00308 630.728C8.96731 629.714 9.2438 628.719 9.78282 627.921C10.3218 627.122 11.088 626.574 11.9436 626.374C18.6089 624.095 25.2742 621.815 31.9199 619.536C52.445 612.56 72.735 604.787 92.5936 595.487C120.826 582.474 147.698 565.78 172.695 545.725C195.023 527.712 215.505 506.786 233.741 483.357C252.472 459.105 268.903 432.578 282.75 404.235C297.244 374.784 311.248 345.013 324.761 314.924C357.97 241.493 391.12 168.032 424.211 94.5398C430.504 80.5436 436.738 66.5246 443.05 52.5511C444.521 49.2686 446.01 45.9861 447.736 42.886C452.494 34.0091 458.88 26.464 466.437 20.7896C473.994 15.1152 482.536 11.4518 491.452 10.0609C495.17 9.41849 498.926 9.10605 502.685 9.12629C528.105 9.12629 553.544 9.12629 579.002 9.12629C581.63 8.83097 584.281 9.05448 586.844 9.78735C587.295 14.0045 585.609 17.6745 584.531 21.4585C575.382 53.6301 566.182 85.7789 556.929 117.905L403.196 653.387C402.294 656.601 401.647 659.883 400.863 663.097Z" fill="#01C2CB"/>
<path d="M393.021 663.361C393.806 660.147 394.453 656.864 395.354 653.696L549.087 118.214C558.301 86.0729 567.502 53.9241 576.689 21.7677C577.767 17.9837 579.453 14.3137 579.002 10.0966C580.684 9.70403 582.387 9.44508 584.099 9.32153C606.931 9.32153 629.77 9.32153 652.615 9.32153C654.033 9.39508 655.437 9.68634 656.79 10.1878C657.241 10.3245 657.633 11.0768 657.829 11.6466C658.006 12.279 658.046 12.9522 657.947 13.607C656.084 26.5091 654.163 39.3884 652.321 52.3588C650.36 66.2639 648.4 80.1918 646.439 94.0968C645.028 104.013 643.518 113.929 642.087 123.845C640.656 133.76 639.264 143.699 637.853 153.638C636.441 163.577 635.05 173.492 633.619 183.408C632.188 193.324 630.717 203.263 629.267 213.179C627.679 224.098 626.071 234.994 624.522 245.936C622.562 259.818 620.602 273.746 618.641 287.651C617.23 297.567 615.72 307.483 614.289 317.284C612.858 327.086 611.486 337.162 610.055 347.078L605.605 377.851C604.193 387.767 602.801 397.706 601.37 407.622L596.92 438.395L592.686 468.189C591.274 478.104 589.883 488.043 588.451 497.959L584.021 528.733L579.767 558.503L575.337 589.277L571.083 619.07C569.606 629.328 568.122 639.578 566.632 649.821C566.26 652.465 565.711 655.086 565.378 657.753C564.613 663.657 564.084 664.022 558.517 663.999C557.654 663.999 556.791 663.999 555.929 663.999C504.462 663.999 453.002 663.999 401.549 663.999C398.765 663.999 395.884 663.703 393.021 663.361V663.361Z" fill="#649AAE"/>
</g>
<defs>
<filter id="filter0_d" x="0" y="0" width="669" height="675" filterUnits="userSpaceOnUse" color-interpolation-filters="sRGB">
<feFlood flood-opacity="0" result="BackgroundImageFix"/>
<feColorMatrix in="SourceAlpha" type="matrix" values="0 0 0 0 0 0 0 0 0 0 0 0 0 0 0 0 0 0 127 0"/>
<feOffset dx="1" dy="1"/>
<feGaussianBlur stdDeviation="5"/>
<feColorMatrix type="matrix" values="0 0 0 0 0 0 0 0 0 0 0 0 0 0 0 0 0 0 0.25 0"/>
<feBlend mode="normal" in2="BackgroundImageFix" result="effect1_dropShadow"/>
<feBlend mode="normal" in="SourceGraphic" in2="effect1_dropShadow" result="shape"/>
</filter>
</defs>
</svg>
