<svg xmlns="http://www.w3.org/2000/svg" xmlns:xlink="http://www.w3.org/1999/xlink" viewBox="0 0 800 761.6"><defs><style>.cls-1{fill:none;}.cls-2{fill:#01c2cb;}.cls-3{fill:#649aae;}.cls-4{fill:#751d28;}.cls-5{fill:#a31d27;opacity:0.51;}.cls-6{fill:#efefef;}.cls-7,.cls-8{fill:#fff;}.cls-8{opacity:0.06;}.cls-9{clip-path:url(#clip-path);}.cls-10{fill:#eaeaea;}.cls-11{clip-path:url(#clip-path-2);}.cls-12{clip-path:url(#clip-path-3);}</style><clipPath id="clip-path" transform="translate(0)"><path class="cls-1" d="M722.72,119.41s.1,1.14.23,3.13c.72,11.35,2.38,50.15-8,60.4,0,0-170.16-39.89-224.31-19.08,0,0,3.21-39.86,26.41-59.58S703.94,104.07,722.72,119.41Z"/></clipPath><clipPath id="clip-path-2" transform="translate(0)"><path class="cls-1" d="M794.22,293.87a35.36,35.36,0,0,1-70.72,0,34.6,34.6,0,0,1,5.09-18.12,35.42,35.42,0,0,1,65.63,18.12Z"/></clipPath><clipPath id="clip-path-3" transform="translate(0)"><path class="cls-1" d="M763,259.06s26.06-117.68,22.83-145.57c-3.55-30.71-8.42-88.57-86.84-96.18s-146.15,79-146.15,79l169.85,23.08a36.16,36.16,0,0,1,4.4-6.55c2.58-2.93,5.88-5.1,8.75-2,10.57,11.42,17,148.46,17,148.46Z"/></clipPath></defs><g id="Tail"><path id="path91" class="cls-2" d="M436.27,761c-1.59.2-3.18.5-4.78.57H12.4c-3.21,0-6.42-.13-9.65-.22A3,3,0,0,1,.18,759,9.19,9.19,0,0,0,0,758V730a4.09,4.09,0,0,1,3.28-4.17q11.13-3.27,22.24-6.55c22.85-6.68,45.44-14.12,67.55-23a447.42,447.42,0,0,0,89.18-47.65,396.15,396.15,0,0,0,68-59.71,434.62,434.62,0,0,0,54.57-75.76q24.2-42.3,46.77-85.51,55.45-105.46,110.72-211c7-13.4,14-26.82,21-40.2,1.64-3.15,3.3-6.29,5.22-9.26a68,68,0,0,1,48.67-31.43,83.08,83.08,0,0,1,12.51-.89h85a26.16,26.16,0,0,1,8.73.63c.51,4-1.37,7.55-2.57,11.18Q625.48,192.89,610,239L438.87,751.73C437.87,754.81,437.15,758,436.27,761Z" transform="translate(0)"/><path id="path93" class="cls-3" d="M427.54,760.36c.88-3.08,1.6-6.22,2.6-9.26L601.3,238.4q15.39-46.17,30.73-92.35c1.2-3.62,3.08-7.13,2.57-11.17a40.32,40.32,0,0,1,5.68-.74h76.28a18,18,0,0,1,4.65.83c.5.13.94.85,1.15,1.39a3.75,3.75,0,0,1,.13,1.88c-2.07,12.35-4.21,24.68-6.26,37.1q-3.27,20-6.55,40c-1.57,9.49-3.25,19-4.84,28.48s-3.14,19-4.72,28.52-3.12,19-4.71,28.51-3.23,19-4.85,28.5c-1.76,10.46-3.55,20.89-5.28,31.37q-3.27,19.94-6.55,39.94c-1.57,9.49-3.25,19-4.84,28.37s-3.12,19-4.71,28.53l-5,29.46c-1.57,9.49-3.12,19-4.71,28.5l-5,29.47-4.71,28.53c-1.57,9.49-3.12,19-4.72,28.5l-4.93,29.46L635.45,660l-4.93,29.46L625.79,718q-2.47,14.73-5,29.44c-.41,2.53-1,5-1.4,7.6-.85,5.65-1.44,6-7.63,6H437c-3.1,0-6.31-.29-9.5-.61Z" transform="translate(0)"/></g><g id="Christmas_Hat" data-name="Christmas Hat"><path class="cls-4" d="M518,104.35S617.79-6.55,692.48.3c66.38,6.1,156.28,43.32,75.62,260.21l-15.23-.68s-5.38-137.46-17-149c-5.52-5.48-13.15,8.55-13.15,8.55L517.09,104.28" transform="translate(0)"/><path class="cls-5" d="M763,259.06s26.06-117.68,22.83-145.57c-3.55-30.71-8.42-88.57-86.84-96.18s-146.15,79-146.15,79l169.85,23.08s7.44-14.72,13.15-8.55c10.57,11.42,17,148.46,17,148.46Z" transform="translate(0)"/><path class="cls-6" d="M527.9,99.53" transform="translate(0)"/><path class="cls-7" d="M722.72,119.41s.1,1.14.23,3.13c.72,11.35,2.38,50.15-8,60.4,0,0-170.16-39.89-224.31-19.08,0,0,3.21-39.86,26.41-59.58S703.94,104.07,722.72,119.41Z" transform="translate(0)"/><ellipse class="cls-7" cx="758.86" cy="293.87" rx="35.36" ry="35.05"/><path class="cls-8" d="M736.29,74.91s12.49,37,22.57,24.62c7.09-8.71,3.36-37-2.94-47.62C746.11,35.33,696,13.67,653.73,38.71s-28,45.52-15.56,49.06c23.68,6.77,39.75-3.23,49.74-5.07C700.77,80.33,727.83,62.06,736.29,74.91Z" transform="translate(0)"/><g class="cls-9"><path class="cls-10" d="M537.42,97.72s-31.73,48-15.14,48.08c18.79.1,184.58,7.95,201.22,23.52l-2.86,21.06S487.8,168.22,487.25,169.16s-15.3-33.91-15.3-35,51.26-48.06,50.5-48.06S537.42,97.72,537.42,97.72Z" transform="translate(0)"/></g><g class="cls-11"><path class="cls-10" d="M737.19,266.18s-23.89,46.54,32.69,61-41.88,4-41.88,4l-17.25-51.77Z" transform="translate(0)"/></g><g class="cls-12"><path class="cls-4" d="M737.85,116.86c0-5.82,5.33-9.41,5.33-9.41-9.92.42-13.57,3.11-13.57,3.11Z" transform="translate(0)"/></g></g></svg>