<?xml version="1.0" encoding="UTF-8" standalone="no"?>
<svg
   xmlns:dc="http://purl.org/dc/elements/1.1/"
   xmlns:cc="http://creativecommons.org/ns#"
   xmlns:rdf="http://www.w3.org/1999/02/22-rdf-syntax-ns#"
   xmlns:svg="http://www.w3.org/2000/svg"
   xmlns="http://www.w3.org/2000/svg"
   xmlns:sodipodi="http://sodipodi.sourceforge.net/DTD/sodipodi-0.dtd"
   xmlns:inkscape="http://www.inkscape.org/namespaces/inkscape"
   id="Layer_1"
   data-name="Layer 1"
   viewBox="0 0 1711.5255 361.80936"
   version="1.1"
   sodipodi:docname="FBW-Logo-WHITE-Christmas.svg"
   width="1711.5255"
   height="361.80936"
   inkscape:version="1.0.1 (3bc2e813f5, 2020-09-07)"
   inkscape:export-filename="N:\!Mod REPOs\fbw-branding\png\events\FBW-Logo-WHITE-Christmas.png"
   inkscape:export-xdpi="96"
   inkscape:export-ydpi="96">
  <metadata
     id="metadata51">
    <rdf:RDF>
      <cc:Work
         rdf:about="">
        <dc:format>image/svg+xml</dc:format>
        <dc:type
           rdf:resource="http://purl.org/dc/dcmitype/StillImage" />
        <dc:title></dc:title>
      </cc:Work>
    </rdf:RDF>
  </metadata>
  <sodipodi:namedview
     pagecolor="#ffffff"
     bordercolor="#666666"
     borderopacity="1"
     objecttolerance="10"
     gridtolerance="10"
     guidetolerance="10"
     inkscape:pageopacity="0"
     inkscape:pageshadow="2"
     inkscape:window-width="1920"
     inkscape:window-height="1017"
     id="namedview49"
     showgrid="false"
     inkscape:zoom="0.58676091"
     inkscape:cx="810.4784"
     inkscape:cy="389.5057"
     inkscape:window-x="-8"
     inkscape:window-y="-8"
     inkscape:window-maximized="1"
     inkscape:current-layer="Layer_1"
     inkscape:document-rotation="0" />
  <defs
     id="defs4">
    <style
       id="style2">.cls-1{fill:#fff;}.cls-2{fill:#01c2cb;}.cls-3{fill:#649aae;}.cls-4{fill:#669bb0;}.cls-5{fill:#595757;}.cls-6{fill:#679aaf;}.cls-7{fill:#585858;}.cls-8{fill:#05c3cc;}.cls-9{fill:#06c4cc;}.cls-10{fill:#679bb0;}.cls-11{fill:#05c4cd;}.cls-12{fill:#06c2cb;}.cls-13{fill:#595555;}.cls-14{fill:#565959;}.cls-15{fill:#595858;}.cls-16{fill:#feffff;}.cls-17{fill:#fefefe;}.cls-18{fill:#fdfeff;}</style>
  </defs>
  <path
     class="cls-2"
     d="m 199.89157,286.94543 c -0.73,0.09 -1.46,0.23 -2.19,0.26 -1,0 -2.06,0 -3.09,0 H 5.6815717 c -1.47,0 -2.94,-0.06 -4.42,-0.1 a 1.36,1.36 0 0 1 -1.17999999,-1.1 c 0,-0.15 -0.07,-0.29 -0.08,-0.43 0,-4.28003 0,-8.55003 0,-12.83003 a 1.87,1.87 0 0 1 1.49999999,-1.91 c 3.4,-1 6.8,-2 10.1900003,-3 10.47,-3.06 20.82,-6.47 30.95,-10.55 a 204.87,204.87 0 0 0 40.86,-21.83 181.7,181.7 0 0 0 31.139998,-27.36 199.22,199.22 0 0 0 25,-34.71 q 11.09,-19.38 21.43,-39.18 25.41,-48.319998 50.73,-96.679998 c 3.21,-6.14 6.39,-12.29 9.61,-18.42 0.75,-1.44 1.51,-2.88 2.39,-4.24 a 31.16,31.16 0 0 1 22.3,-14.4000003 37.8,37.8 0 0 1 5.73,-0.41 q 19.45,0 38.93,0 a 11.94,11.94 0 0 1 4,0.29 c 0.23,1.85 -0.63,3.46 -1.18,5.12 q -7,21.1700003 -14.08,42.3100003 l -78.42,234.909998 c -0.46,1.41003 -0.79,2.85003 -1.19,4.26003 z"
     id="path8"
     style="fill:#ffffff;fill-opacity:1" />
  <path
     class="cls-3"
     d="m 199.89157,286.94543 c 0.4,-1.41 0.73,-2.85 1.19,-4.24003 l 78.42,-234.909998 q 7.05,-21.15 14.08,-42.3100003 c 0.55,-1.66 1.41,-3.27 1.18,-5.12 a 19.28,19.28 0 0 1 2.6,-0.34 q 17.47,0 34.95,0 a 8.22,8.22 0 0 1 2.13,0.38 c 0.23,0.06 0.43,0.39 0.53,0.64 a 1.78,1.78 0 0 1 0.06,0.86 c -0.95,5.66 -1.93,11.3100003 -2.87,17.0000003 -1,6.1 -2,12.21 -3,18.31 -0.72,4.35 -1.49,8.7 -2.22,13.05 -0.73,4.35 -1.44,8.71 -2.16,13.07 -0.72,4.36 -1.43,8.71 -2.16,13.06 -0.73,4.35 -1.48,8.71 -2.22,13.06 -0.81,4.79 -1.63,9.57 -2.42,14.369998 -1,6.09 -2,12.2 -3,18.3 -0.72,4.35 -1.49,8.7 -2.22,13 -0.73,4.3 -1.43,8.72 -2.16,13.07 l -2.27,13.5 c -0.72,4.35 -1.43,8.71 -2.16,13.06 l -2.27,13.5 -2.16,13.07 c -0.72,4.35 -1.43,8.71 -2.16,13.06 l -2.26,13.5 -2.17,13.06 -2.26,13.5 -2.17,13.07 q -1.13,6.75 -2.27,13.49 c -0.19,1.16 -0.47,2.31003 -0.64,3.48003 -0.39,2.59 -0.66,2.75 -3.5,2.74 -0.44,0 -0.88,0 -1.32,0 q -39.38,0 -78.75,0 c -1.42,0 -2.89,-0.13 -4.35,-0.28 z"
     id="path10"
     style="fill:#787878;fill-opacity:1" />
  <path
     class="cls-5"
     d="m 1220.1815,102.6154 c -0.62,2 -1.27,4 -1.84,5.92 q -16.08,55.14 -32.15,110.29 -8.78,30.12 -17.63,60.22 c -1.4,4.75003 -0.44,4.19003 -5.58,4.21003 -4.13,0 -8.26,0 -12.4,0 a 10.42,10.42 0 0 1 -1.76,-0.12 1,1 0 0 1 -0.66,-0.52003 25.54,25.54 0 0 1 -0.94,-2.47 l -46.75,-146.47 -13.8,-43.369998 c -0.35,-1.12 -0.68,-2.26 -1,-3.39 a 1,1 0 0 1 0.67,-1 c 0.14,0 0.28,-0.09 0.42,-0.09 q 6.87,0 13.72,0 a 1.59,1.59 0 0 1 1.63,1.22 l 3.91,12.67 23.21,75.599998 26.94,87.87 c 0.38,1.26 0.86,2.49 1.31,3.73 0,0.1 0.22,0.16 0.34,0.22 0.34,0.16 0.61,0.1 0.71,-0.2 0.39,-1.11 0.8,-2.21 1.13,-3.34 l 24.77,-85.28 25.75,-88.679998 c 0.28,-1 0.68,-1.94 1,-2.91 a 7,7 0 0 1 1.34,-0.3 c 5.16,0 10.32,0 15.49,0 a 5.22,5.22 0 0 1 0.88,0.07 1.48,1.48 0 0 1 1.32,1 c 0.62,2 1.23,3.94 1.81,5.91 l 23.8,80.999998 25.93,88.17 c 0.41,1.41 0.85,2.81 1.32,4.37 0.45,-0.31 1,-0.47 1.06,-0.77 q 1.45,-4.41 2.77,-8.85 20.79,-69.42 41.55,-138.83 c 2.83,-9.46 5.62,-18.919998 8.44,-28.379998 a 32.61,32.61 0 0 1 1.13,-3.33 c 0.15,-0.35 0.62,-0.57 1,-0.83 a 0.83,0.83 0 0 1 0.43,-0.07 q 6.42,0 12.83,0 a 1,1 0 0 1 0.91,1.21 c -0.28,1 -0.56,2 -0.87,3 l -7.87,24.859998 -43,135.6 q -4.61,14.54 -9.17,29.08 c -0.27,0.84 -0.54,1.68 -0.85,2.51 a 1.74,1.74 0 0 1 -1.72,1.15003 q -7.29,0 -14.6,0 c -1,0 -1.53,-0.51003 -1.86,-1.57003 -0.33,-1.06 -0.6,-2 -0.89,-3 l -21.47,-73.81 q -14.58,-50.06 -29.2,-100.1 a 7.84,7.84 0 0 0 -0.65,-1.62 c -0.16,-0.25 -0.5,-0.35 -0.86,-0.58 z"
     id="path14"
     style="fill:#ffffff;fill-opacity:1" />
  <path
     class="cls-6"
     d="M 721.78157,145.7754 V 13.965402 c 0,-1.47 0,-2.94 0.1,-4.4100003 a 1.71,1.71 0 0 1 1.78,-1.61 c 3.69,0 7.37,0 11.06,0 a 1.61,1.61 0 0 1 1.6,1.73 c 0,1.4700003 0,2.9500003 0,4.4200003 V 120.2354 c 0,1.48 0,3 0.06,4.43 a 1.93,1.93 0 0 0 0.31,0.71 c 0.16,0.29 0.6,0 1,-0.68 2,-3.79 3.94,-7.59 5.93,-11.37 1.1,-2.09 2.28,-4.13 3.33,-6.24 a 17.76,17.76 0 0 1 3.13,-4.25 70.57,70.57 0 0 1 17.46995,-13.429998 67.41,67.41 0 0 1 22.12,-7.39 105.29,105.29 0 0 1 19.81,-1.44 c 12.51,0.46 24.56,2.9 35.82,8.61 a 78,78 0 0 1 24.78,19.629998 97.57,97.57 0 0 1 18.86,36.19 127.18,127.18 0 0 1 4,19.46 107.06,107.06 0 0 1 1.09,15 c 0,2.95 0.06,5.9 -0.06,8.84 -0.22,5.3 -0.73,10.57 -1.43,15.84 a 117.48,117.48 0 0 1 -2.79,14.29 104.7,104.7 0 0 1 -12.23,29.25 84.14,84.14 0 0 1 -40.92,34.41 91.44,91.44 0 0 1 -19.58,5.29003 c -6.6,1.09 -13.22,1 -19.85,0.9 a 72,72 0 0 1 -22.52,-4.08 64.49,64.49 0 0 1 -26.38995,-17.25003 13.91,13.91 0 0 1 -2.33,-3.73 q -3.51,-7.38 -7,-14.75 c -0.45,-0.93 -1,-1.83 -1.49,-2.71 -0.1,-0.16 -0.48,-0.16 -0.74,-0.18 0,0 -0.16,0.22 -0.17,0.34 0,1.32 -0.11,2.64 -0.12,4 v 29.63 c 0,3.36 -0.06,3.89003 -3.63,3.87003 -2.66,0 -5.31,0 -8,0 -2.69,0 -2.94,-0.43003 -3,-3.18003 0,-1.33 0,-2.66 0,-4 z m 14.61,40.16 v 0 c 0,4.42 0,8.84 0,13.27 a 112.23,112.23 0 0 0 1.88,20.2 80.46,80.46 0 0 0 8.94,25.76 59.12,59.12 0 0 0 27.81995,25.59 68.53,68.53 0 0 0 28.37,5.79 62.69,62.69 0 0 0 7.48,-0.62 82.68,82.68 0 0 0 8.3,-1.26 69.14,69.14 0 0 0 21.53,-9 63.82,63.82 0 0 0 9.78,-7.56 c 9.49,-8.82 16,-19.55 20.61,-31.54 4.66,-12.24 6.63,-25 7,-38 a 129.24,129.24 0 0 0 -0.55,-16.33 142.56,142.56 0 0 0 -3,-18.73 97.44,97.44 0 0 0 -8.94,-23.94 71.9,71.9 0 0 0 -20.26,-24.22 59.4,59.4 0 0 0 -20.5,-10.079998 73.68,73.68 0 0 0 -19.21,-2.57 98.26,98.26 0 0 0 -10.14,0.67 69.42,69.42 0 0 0 -16.74,3.88 57.17,57.17 0 0 0 -26.49995,19.849998 67.34,67.34 0 0 0 -8.72,15.83 97.66,97.66 0 0 0 -5.5,20.88 128,128 0 0 0 -1.65,19.35 z"
     id="path16"
     style="fill:#ffffff;fill-opacity:1" />
  <path
     class="cls-7"
     d="m 1708.2215,222.1654 a 9.62,9.62 0 0 1 -0.11,1.41 89.56,89.56 0 0 1 -17.23,35 c -11.18,13.71 -25.48,22.55 -42.56,27.00003 a 90.16,90.16 0 0 1 -32,2.5 c -22.67,-2.26 -41.35,-12.09003 -55.56,-30.00003 a 93.78,93.78 0 0 1 -15.73,-30.46 124.74,124.74 0 0 1 -4.77,-22 164.91,164.91 0 0 1 -1.43,-23.81 c 0.3,-15.45 2.86,-30.49 8.72,-44.86 a 93.23,93.23 0 0 1 22.25,-33.15 82.68,82.68 0 0 1 43.64,-21.819998 87.49,87.49 0 0 1 26.44,-0.63 c 21,2.78 38.17,12.4 51.06,29.389998 a 96.5,96.5 0 0 1 14.86,29.36 119.21,119.21 0 0 1 4.77,22.44 140.83,140.83 0 0 1 0.8,22.95 c 0,0.59 -0.08,1.17 -0.14,1.76 -0.08,0.82 -0.55,1.23 -1.49,1.25 -1.33,0 -2.66,0 -4,0 h -145.55 c -1.48,0 -3,0 -4.42,0.06 a 1.7,1.7 0 0 0 -1.74,2.05 c 0.15,2.8 0.27,5.6 0.55,8.38 a 121.24,121.24 0 0 0 7.22,31.79 77.93,77.93 0 0 0 12.22,21.41 63.37,63.37 0 0 0 37.82,22.91 71.57,71.57 0 0 0 40.83,-3.68 c 13.94,-5.5 24.57,-14.94 32.28,-27.72 a 81.07,81.07 0 0 0 7.59,-16.89 c 0.37,-1.12 0.67,-2.26 1,-3.38 0.33,-1.12 0.8,-1.52 1.85,-1.53 1.62,0 3.25,0 4.87,0 2.06,0 4.13,0 6.19,0 a 11.4,11.4 0 0 1 1.77,0.27 z m -82.87,-46 h 65.9 c 1.33,0 2.66,0 4,0 1.11,0 1.67,-0.59 1.63,-1.59 0,-0.44 0,-0.88 -0.08,-1.32 -0.48,-4.39 -0.68,-8.8 -1.33,-13.19 a 111,111 0 0 0 -5.65,-22.66 77.44,77.44 0 0 0 -10.16,-19 60.64,60.64 0 0 0 -23.61,-19.489998 66.1,66.1 0 0 0 -40.15,-5.07 68.86,68.86 0 0 0 -37.36,19.629998 78.67,78.67 0 0 0 -18.52,29.76 104.57,104.57 0 0 0 -5.69,27.16 c -0.49,6.45 -1.1,5.82 5.59,5.83 q 32.69,-0.05 65.43,-0.07 z"
     id="path18"
     style="fill:#ffffff;fill-opacity:1" />
  <path
     class="cls-9"
     d="m 535.43157,360.47543 c -0.06,-0.93 -0.18,-1.79 -0.18,-2.66 0,-2.65 0,-5.31 0.08,-8 a 1.24,1.24 0 0 1 1.53,-1.15 c 0.15,0 0.3,0 0.44,0.06 a 61.9,61.9 0 0 0 15.44,0.53 28.53,28.53 0 0 0 14.37,-5.25 44.53,44.53 0 0 0 9.29,-8.79 93.77,93.77 0 0 0 9.62,-14.82 200.8,200.8 0 0 0 9.55,-20.9 c 1.47,-3.7 2.9,-7.41 4.3,-11 a 19.88,19.88 0 0 0 -1.77,-5.62003 q -8.39,-21.89 -16.85,-43.73 l -40.25,-104.36 -17.47,-45.389998 c -0.32,-0.82 -0.58,-1.67 -0.86,-2.51 a 0.9,0.9 0 0 1 0.6,-1 c 0.44,0 0.87,-0.14 1.31,-0.14 q 6,0 11.95,0 a 11.62,11.62 0 0 1 1.45,0.18 13.24,13.24 0 0 1 1.06,1.81 c 1,2.61 2,5.25 2.92,7.87 l 42.71,115.249998 q 10.44,28.18 20.88,56.38 c 0.35,1 0.79,1.89 1.21,2.83 a 0.41,0.41 0 0 0 0.33,0.2 c 0.25,0 0.64,-0.1 0.72,-0.27 q 0.66,-1.4 1.2,-2.85 l 42.64,-115.27 q 11.41,-30.89 22.88,-61.769998 c 0.36,-1 0.67,-2 1.1,-2.89 a 9,9 0 0 1 1,-1.44 c 4.78,0 9.5,0 14.21,0 0.83,0 1.18,0.69 0.87,1.59 -0.24,0.7 -0.49,1.39 -0.76,2.08 l -7,18.149998 -34.47,89.53 q -17.24,44.77 -34.46,89.54003 c -4,10.31 -8.15,20.55 -13,30.48 a 152.93,152.93 0 0 1 -13.33,22.9 72.59,72.59 0 0 1 -9.32,10.64 40,40 0 0 1 -16.76,9.51 37.72,37.72 0 0 1 -7.82,1.39 106.21,106.21 0 0 1 -14.16,-0.1 14.31,14.31 0 0 1 -5.2,-1.01 z"
     id="path28"
     style="fill:#ffffff;fill-opacity:1" />
  <path
     class="cls-10"
     d="m 1062.8315,86.095402 a 16.21,16.21 0 0 1 2.16,-0.29 c 3.24,0 6.49,0 9.74,0 4.08,0 4.49,-0.28 2.83,3.95 -4.36,11.109998 -8.57,22.279998 -12.85,33.419998 l -14.9,38.79 q -5.79,15.06 -11.61,30.11 l -14.92,38.78 -11.45,29.7 -10.63,27.64003 q -3.99997,10.53 -8.63997,20.83 c -2.23,5 -4.55,9.91 -7.11,14.73 a 127.1,127.1 0 0 1 -11,17.63 61.47,61.47 0 0 1 -11.25,11.82 39.25,39.25 0 0 1 -23.69,8.58 c -3.84,0.06 -7.67,0 -11.51,-0.1 a 22.84,22.84 0 0 1 -3.09,-0.24 c -2.91,-0.46 -3.2,-0.82 -3.18,-3.68 0,-2.51 0,-5 0,-7.52 0,-1.08 0.71,-1.71 1.69,-1.5 4.23,0.9 8.52,0.71 12.79,0.74 a 29.92,29.92 0 0 0 19.22,-6.75 46.89,46.89 0 0 0 7.51,-7.46 108.22,108.22 0 0 0 13.05,-21.5 c 3.42,-7.19 6.28,-14.63 9.21,-22 a 15.53,15.53 0 0 0 0.89,-2.5 5.29,5.29 0 0 0 0,-2.17 15.38,15.38 0 0 0 -0.88,-2.49 q -10.7,-27.86003 -21.41,-55.71003 -8.84,-22.89 -17.71,-45.76 -7.48,-19.4 -14.91,-38.79 l -11.24,-29.35 -9.71,-25.159998 c -0.37,-1 -0.63,-2 -0.93,-2.94 a 1.14,1.14 0 0 1 0.69,-1 c 0.44,-0.05 0.87,-0.15 1.31,-0.16 4,0 8,0 11.95,0 a 2.29,2.29 0 0 1 2.32,1.67 l 0.92,2.48 q 8.29,22.399998 16.59,44.769998 c 3.53,9.54 7,19.09 10.55,28.62 l 15.86,42.68 q 4.92,13.26 9.81,26.54 l 13.18,35.65 a 10.88,10.88 0 0 0 1,1.93 0.79,0.79 0 0 0 0.71,-0.06 7.3,7.3 0 0 0 0.83,-1.53 l 8.14997,-22 q 8.54,-23 17.08,-46 c 3.53,-9.54 7,-19.09 10.54,-28.63 q 8,-21.55 16,-43.09 c 2.51,-6.77 5,-13.56 7.47,-20.34 2.47,-6.78 5,-13.529998 7.57,-20.289998 0.34,-0.63 0.66,-1.29 1,-2.05 z"
     id="path30"
     style="fill:#ffffff;fill-opacity:1" />
  <path
     class="cls-11"
     d="m 442.94157,2.7154017 a 4,4 0 0 1 0.5,1.23 c 0,3.24 0,6.4800003 0,9.7200003 a 1.09,1.09 0 0 1 -1.11,1.09 c -1,-0.12 -2,-0.25 -3.06,-0.41 a 55.75,55.75 0 0 0 -14.54,-0.57 32.37,32.37 0 0 0 -6.48,1.38 24.18,24.18 0 0 0 -15.59,14.6 37.2,37.2 0 0 0 -2.58,10.7 179.33,179.33 0 0 0 -0.85,18.54 c 0.09,8.11 0,16.22 0,24.32 a 21.05,21.05 0 0 0 0.17,3.08 1.29,1.29 0 0 0 0.86,0.84 29.43,29.43 0 0 0 3.52,0.19 q 15.48,0 31,0 c 5.47,0 5.06,-0.47 5.07,4.92 0,1.92 0,3.83 -0.06,5.75 a 1.44,1.44 0 0 1 -1.46,1.35 c -1.33,0 -2.66,0.06 -4,0.06 q -15.5,0 -31,0 c -4.2,0 -4.15,-0.12 -4.12,4.119998 v 174.24 c 0,6.05003 0.74,5.40003 -5.41,5.43003 -2.51,0 -5,-0.05 -7.52,-0.1 a 1.28,1.28 0 0 1 -1.18,-1.09003 c 0,-0.44 -0.08,-0.88 -0.08,-1.32 v -175.55 c 0,-1.62 -0.08,-3.23 -0.18,-4.85 a 0.93,0.93 0 0 0 -0.58,-0.609998 10.63,10.63 0 0 0 -2.18,-0.24 c -4.43,0 -8.85,0 -13.28,0 -1.17,0 -2.35,0 -3.53,0 a 1.52,1.52 0 0 1 -1.56,-1.73 q 0,-4.42 0,-8.84 a 1.39,1.39 0 0 1 1.39,-1.4 c 1,0 2.07,-0.06 3.1,-0.06 3.83,0 7.67,0 11.5,0 1.18,0 2.36,0 3.54,0 1.18,0 1.69,-0.56 1.71,-1.55 0,-1.33 0,-2.65 0,-4 q 0,-13.26 0,-26.53 a 155.51,155.51 0 0 1 0.87,-17.66 46.49,46.49 0 0 1 5.52,-17.67 c 5.94,-10.6300003 15,-16.7000003 27,-18.5800003 a 61.64,61.64 0 0 1 15,-0.24 c 1.91,0.17 3.83,0.34 5.72,0.62 1.32,0.14 2.59,0.52 3.88,0.82 z"
     id="path32"
     style="fill:#ffffff;fill-opacity:1" />
  <path
     class="cls-12"
     d="M 472.48157,137.3854 V 13.585402 c 0,-1.47 0,-2.94 0.11,-4.4100003 a 1.34,1.34 0 0 1 1.15,-1.15 c 1.32,-0.05 2.65,-0.09 4,-0.1 2.21,0 4.43,0 6.64,0 1.9,0 2.29,0.43 2.33,2.3600003 0,1.33 0,2.65 0,4 V 240.6454 c 0,5.6 0.13,11.2 0.17,16.8 a 29.54,29.54 0 0 0 0.81,6.57 17.48,17.48 0 0 0 1.25,3.76 8.62,8.62 0 0 0 5.2,4.51 16,16 0 0 0 5.64,0.94 c 2.65,-0.07 5.3,-0.17 8,-0.26 a 1.38,1.38 0 0 1 1,0.73 c 0,0.3 0.09,0.59 0.09,0.88 0,2.51 0,5 0,7.52 0,1.50003 -0.6,2.21003 -2,2.38003 -5.72,0.68 -11.45,1.17 -17.19,0.26 a 31.44,31.44 0 0 1 -4.3,-1 15.94,15.94 0 0 1 -10,-8.81003 28.39,28.39 0 0 1 -2.53,-11.13 c -0.17,-3.83 -0.22,-7.66 -0.27,-11.5 0,-3.68 0,-7.36 0,-11 z"
     id="path34"
     style="fill:#ffffff;fill-opacity:1" />
  <path
     class="cls-13"
     d="m 1465.6815,282.7454 a 3.94,3.94 0 0 1 -2.64,0.50003 c -3.67,-0.11 -7.35,0.3 -11,-0.27003 a 7.33,7.33 0 0 1 -0.32,-1.39 c 0,-1.32 0,-2.65 0,-4 V 91.435402 c 0,-1.47 0,-2.94 0.1,-4.41 a 1.26,1.26 0 0 1 1.14,-1.14 c 3.84,0 7.67,0 11.5,0 a 1.38,1.38 0 0 1 1.46,1.33 c 0,1.33 0.06,2.65 0.06,4 q 0,15.259998 0,30.509998 a 11.15,11.15 0 0 0 0.31,2.06 c 0,0 0.37,0.07 0.41,0 a 20.78,20.78 0 0 0 1,-1.92 c 2.47,-5.67 5,-11.34 7.37,-17 a 22.67,22.67 0 0 1 3.47,-5.609998 50,50 0 0 1 21.18,-15.46 45.44,45.44 0 0 1 21.72,-2.74 c 1.31,0.16 2.62,0.36 3.92,0.58 a 1.53,1.53 0 0 1 1.08,1.26 q 0,4.65 0,9.28 c 0,0.79 -0.59,1.26 -1.48,1.26 -1.62,0 -3.24,0 -4.86,0 a 53.89,53.89 0 0 0 -12.7,1.54 45.35,45.35 0 0 0 -27.53,19.379998 69.39,69.39 0 0 0 -8.47,17.92 105.07,105.07 0 0 0 -3.69,16.35 173.87,173.87 0 0 0 -1.77,26 q 0.06,51.73 0,103.48 c 0,1.5 0.25,3.13 -0.26,4.64 z"
     id="path36"
     style="fill:#ffffff;fill-opacity:1" />
  <path
     class="cls-14"
     d="M 1382.9415,184.7054 V 91.425402 c 0,-1.48 0.06,-2.95 0.12,-4.42 a 1.31,1.31 0 0 1 1.17,-1.11 c 4,0 7.95,0 11.92,0 0.51,0 1,0.62 1.08,1.21 0.08,0.59 0.09,0.88 0.1,1.32 0,1.18 0,2.36 0,3.53 V 277.2254 c 0,1.62 0,3.24 -0.1,4.86 a 1.26,1.26 0 0 1 -1.17,1.09003 q -6,0 -11.93,0 a 1.35,1.35 0 0 1 -1.13,-1.16003 c 0,-1.48 -0.06,-3 -0.06,-4.42 z"
     id="path38"
     style="fill:#ffffff;fill-opacity:1" />
  <path
     class="cls-15"
     d="m 1389.7815,55.585402 a 10.84,10.84 0 0 1 0.56,-21.67 10.84,10.84 0 1 1 -0.56,21.67 z"
     id="path40"
     style="fill:#ffffff;fill-opacity:1" />
  <g
     id="g875"
     transform="matrix(0.77037115,0.31727501,-0.31727501,0.77037115,375.45345,-490.86201)">
    <path
       class="fil0"
       d="m 1799.3409,34.867917 c 7.0429,-4.277 15.054,-7.1798 23.2977,-7.7791 11.8038,0.4646 22.2331,10.0424 25.1353,21.2467 0.5416,8.0294 1.7606,17.1045 -3.2314,24.0904 -5.0124,8.8818 -15.1901,15.2282 -25.5808,13.4479 -5.7859,-0.1742 -10.005,-4.76 -15.5188,-5.8437 -3.6959,-0.1742 -4.9736,-3.9477 -7.1023,-6.309 -0.3672,1.1225 -1.1033,3.3865 -1.4509,4.528 -1.3544,-1.6062 -2.709,-3.1728 -4.0634,-4.7212 -0.5421,1.3354 -1.6069,4.0048 -2.1483,5.3403 -0.9286,-3.5995 -1.8968,-7.1791 -3.0961,-10.7003 6.5601,-0.9483 13.0229,-2.5354 19.602,-3.3865 3.0951,1.3164 6.0177,3.0382 8.9973,4.6056 -0.368,-0.6966 -1.1225,-2.1089 -1.5089,-2.8246 -3.9864,-2.5157 -7.9532,-5.7083 -9.1138,-10.5267 -0.6775,-4.4505 0.019,-8.9587 0.5226,-13.3909 -1.6253,2.5933 -2.9029,5.4376 -4.9539,7.7601 -5.3016,-1.2776 -12.4228,-3.347 -11.8425,-10.1975 4.9539,0.581 7.3144,-3.4831 9.1336,-7.3335 0.7361,0.5034 2.187,1.4898 2.9218,1.994 z"
       id="path45"
       style="clip-rule:evenodd;fill:#f7f7f7;fill-rule:evenodd;stroke-width:0.0705076;image-rendering:optimizeQuality;shape-rendering:geometricPrecision;text-rendering:geometricPrecision" />
    <path
       class="fil0"
       d="m 1652.7252,45.5879 c 4.5279,-4.528 6.6757,-10.7785 11.2614,-15.229 -1.4898,4.3342 -3.8504,8.4173 -4.3151,13.0813 2.7674,-1.9932 5.3792,-4.1606 8.0689,-6.2498 4.7987,3.8314 10.2364,-1.2776 15.1514,-2.2837 0.038,0.832 0.097,2.5354 0.1347,3.3674 5.9214,-1.8578 11.8038,-3.8314 17.706,-5.7083 -0.6587,1.0647 -1.9546,3.2117 -2.6131,4.2954 5.2437,0.078 10.4881,0.039 15.7126,0 -2.0123,1.7803 -4.0435,3.5409 -6.0566,5.3219 7.5458,0.9864 15.5766,1.2959 22.2333,5.398 -1.7607,0.1353 -5.2826,0.4259 -7.0241,0.5803 3.5995,4.1804 8.9396,6.1151 13.3126,9.3268 -1.1035,0.368 -3.2892,1.1225 -4.3927,1.4905 3.5022,3.4443 8.3206,7.043 7.7397,12.6357 0.3292,4.5668 -4.8178,6.7137 -7.6621,9.3458 -0.2511,-4.5076 -0.3285,-9.0356 -0.9872,-13.5065 -4.3537,3.5607 -7.1789,8.4948 -10.7587,12.752 -0.5033,-4.8565 -0.4251,-9.7328 -0.5993,-14.6084 -3.3864,1.2381 -6.328,3.2891 -8.9015,5.8048 -0.2511,-1.3925 -0.7156,-4.1789 -0.9674,-5.5538 -11.0675,0.2517 -20.0277,8.011 -30.3211,11.2621 -0.038,-1.6251 -0.1177,-4.8572 -0.1556,-6.4824 -2.9803,2.9218 -5.8825,5.9212 -9.3465,8.3015 -0.019,-1.7993 -0.097,-5.379 -0.1347,-7.1791 -6.7336,4.4695 -13.8541,8.2424 -21.3039,11.3779 0.019,-1.4123 0.038,-4.2375 0.059,-5.6505 -5.9022,5.379 -12.5976,9.7533 -19.3699,13.9133 -0.2906,-1.0259 -0.8511,-3.0953 -1.1417,-4.1409 -2.9795,2.9415 -5.7858,6.0756 -8.5327,9.2301 -0.019,-2.1872 -0.078,-6.522 -0.097,-8.6887 -5.8635,3.5995 -7.1213,10.9908 -7.973,17.2793 -1.5285,-1.6061 -3.0953,-3.1347 -4.722,-4.6246 -0.3474,2.0511 -1.0251,6.173 -1.3733,8.2431 -6.5791,-5.2437 -6.4438,-13.9126 -4.8376,-21.4202 -2.0505,1.3544 -4.0436,2.7286 -6.0369,4.1606 2.2246,-4.4321 5.0315,-8.6308 6.1348,-13.5262 -2.2837,1.3926 -4.5089,2.8641 -6.7736,4.3151 0.5619,-9.2485 11.0303,-9.5199 16.9705,-13.6806 l -3.4246,-0.9864 0.2129,-1.413 c 2.4771,-0.3292 4.9729,-0.6578 7.4499,-1.0061 0.3864,-0.5605 1.1797,-1.664 1.5865,-2.2062 -1.0838,-0.6381 -3.2511,-1.8966 -4.3546,-2.5347 3.9865,-0.5232 8.0879,-0.832 11.7839,-2.5538 -0.9475,-0.9483 -2.8633,-2.8436 -3.8123,-3.7926 3.3483,0.2905 6.6565,1.0259 9.8689,1.9932 -0.6776,-2.3606 -1.3354,-4.7219 -1.9933,-7.1015 3.4443,0.4639 9.0561,5.1858 9.6554,-1.1613 0.7157,0.3484 2.1095,1.0062 2.8259,1.3545 0.8503,-4.5076 1.877,-8.9784 3.1919,-13.3513 1.3164,3.7538 2.3803,7.5852 3.1545,11.4941 1.6647,-2.3796 3.3288,-4.7797 5.0124,-7.141 0.1932,1.3552 0.5803,4.1029 0.7545,5.4573 z"
       id="path47"
       style="clip-rule:evenodd;fill:#f7f7f7;fill-rule:evenodd;stroke-width:0.0705076;image-rendering:optimizeQuality;shape-rendering:geometricPrecision;text-rendering:geometricPrecision" />
    <g
       id="g51"
       transform="matrix(0.07050763,0,0,0.07050763,1295.7026,-346.42115)"
       style="clip-rule:evenodd;fill-rule:evenodd;image-rendering:optimizeQuality;shape-rendering:geometricPrecision;text-rendering:geometricPrecision">
      <path
         class="fil1"
         d="m 5089.4,4427.19 c 121.58,-43.9 252.48,-38.7 379.83,-46.1 304.9,-6.04 628.19,97.15 832.92,332.34 129.26,144.36 250.57,295.57 371.05,447.34 95.22,118.28 170.69,251.11 272.24,364.72 24.97,-50.5 34.85,-130.62 109.78,-123.22 40.07,-54.34 73.82,-119.11 139.69,-146.01 -11.53,33.75 -23.33,67.23 -35.13,100.72 142.43,-72.17 316.71,-110.32 469.56,-47.47 301.61,142.16 314.51,640.81 24.7,802.45 -140.24,79.6 -325.75,57.36 -448.16,-46.38 -2.74,15.37 -8.78,46.11 -11.53,61.48 -23.6,-27.99 -46.65,-56.54 -69.43,-85.07 -4.67,16.18 -13.72,48.57 -18.39,65.03 -14.55,-24.97 -66.14,-125.97 -79.86,-41.16 l -12.35,36.21 c -62.57,-58.18 -66.14,-150.12 -90.57,-226.96 -152.59,7.14 -310.39,13.72 -456.67,-38.42 -57.35,-24.97 -111.14,-57.35 -169.32,-80.96 14.82,74.93 37.87,152.87 16.46,228.88 -35.4,70.81 -112.79,104.02 -178.66,140.8 13.17,-63.12 23.33,-127.07 22.5,-191.57 -58.73,65.05 -105.94,152.32 -198.14,174 19.48,-70.53 40.88,-141.34 43.9,-215.17 -62.57,24.7 -115.26,66.97 -171.24,103.2 6.03,-31.29 17.83,-94.14 23.6,-125.42 -144.63,35.4 -270.33,117.46 -408.1,171.24 -12.35,-7.95 -36.77,-23.33 -49.12,-31.01 -30.73,22.5 -62.02,44.73 -93.3,66.68 -8.51,-31.55 -17.03,-63.39 -25.26,-94.95 -98.52,65.87 -204.46,133.37 -327.69,131.73 -85.07,32.1 -155.06,93.58 -233.27,138.31 -9.6,-9.06 -28.53,-27.45 -38.14,-36.5 -36.23,36.77 -45.84,125.69 -108.13,119.92 -2.2,-22.5 -7.13,-68.05 -9.61,-90.57 l -22.23,-3.02 c -14.55,63.95 -28.53,127.9 -38.42,192.67 -16.73,-6.04 -50.5,-18.12 -67.5,-23.87 -3.85,16.19 -11.8,48.57 -15.92,64.77 -108.96,-0.55 -133.66,-137.49 -161.38,-220.66 -14,4.67 -41.98,13.72 -55.98,18.39 10.43,-62.3 42.26,-130.91 -1.37,-188.54 3.3,-72.72 55.16,-129.81 85.62,-192.39 22.51,-5.48 45.29,-10.15 67.79,-14.54 68.61,-76.84 138.33,-152.31 211.31,-224.77 39.8,-4.38 79.86,-8.23 119.93,-12.35 1.65,-20.3 4.94,-61.2 6.58,-81.51 37.6,2.75 75.21,6.59 112.8,9.34 52.69,-69.99 100.73,-142.98 146.28,-217.64 17.28,32.94 34.3,65.87 51.59,98.81 135.03,-25.8 202.53,-150.4 294.75,-237.67 -6.31,51.59 -13.17,103.19 -21.13,154.79 116.64,68.6 230.79,-10.99 323.02,-81.25 -3.3,31.03 -6.59,62.31 -9.61,93.59 62.57,-13.99 124.6,-28.81 187.16,-43.09 10.16,12.08 30.19,36.23 40.34,48.58 138.87,49.41 267.04,123.78 404.54,175.92 -10.44,26.62 -21.69,53.51 -27.72,82.05 33.48,27.17 70.53,49.67 107.02,72.72 31.84,-69.15 72.45,-144.62 48.85,-223.12 -43.63,-167.4 -180.03,-281.85 -281.85,-413.57 106.21,50.22 160,172.63 268.41,214.06 39.52,-159.45 -69.44,-304.62 -176.2,-410.84 88.37,64.77 189.92,139.96 203.08,257.7 7.14,103.19 -21.13,206.38 -5.48,309.57 13.45,92.76 -0.55,185.8 1.91,278.56 70.81,74.1 177.57,90.84 274.72,102.36 180.58,20.31 361.44,-3.85 540.11,-29.08 9.88,-138.31 -147.93,-147.64 -226.69,-223.4 -141.34,-137.49 -237.11,-312.59 -362.54,-463.53 -153.69,-175.64 -281.85,-379.54 -475.88,-515.12 -167.96,-99.34 -358.14,-176.2 -556.29,-169.61 -152.31,3.85 -310.39,-15.92 -456.66,36.77 -156.16,54.62 -297.23,148.47 -412.77,266.2 -114.71,115 -239.03,233.27 -290.35,391.9 -24.42,68.89 -7.14,142.16 -0.82,212.7 14.27,70.54 -30.19,133.37 -52.69,197.05 -43.64,96.05 -38.42,203.08 -42.27,305.72 -6.03,2.47 -18.67,7.13 -24.97,9.6 l -10.98,-15.37 c -15.65,-110.05 8.23,-219.83 46.39,-322.47 53.24,-132.83 7.68,-279.93 55.7,-413.31 52.97,-158.63 169.88,-284.87 289.26,-397.39 128.16,-114.99 273.06,-215.98 436.36,-273.89 v 0 z m 2053.64,980.58 c -10.43,-7.15 -31.01,-21.14 -41.44,-28.28 -25.8,54.62 -59.27,112.25 -129.54,104.01 -8.23,97.16 92.76,126.51 167.96,144.63 29.09,-32.94 47.21,-73.27 70.26,-110.06 -7.13,62.86 -17.02,126.8 -7.41,189.92 16.46,68.34 72.72,113.62 129.26,149.3 5.48,10.15 16.18,30.18 21.4,40.06 -42.27,-22.23 -83.71,-46.65 -127.61,-65.32 -93.31,12.07 -184.98,34.59 -278.01,48.03 17.02,49.95 30.74,100.72 43.91,151.76 7.68,-18.94 22.78,-56.8 30.47,-75.74 19.21,21.95 38.42,44.18 57.63,66.96 4.93,-16.18 15.37,-48.3 20.58,-64.22 30.19,33.49 48.31,87.01 100.73,89.48 78.21,15.36 138.04,80.4 220.1,82.88 147.37,25.25 291.73,-64.77 362.81,-190.73 70.8,-99.08 53.51,-227.79 45.83,-341.67 -41.17,-158.9 -189.09,-294.75 -356.49,-301.34 -116.92,8.5 -230.54,49.67 -330.43,110.33 v 0 z m -2079.43,152.04 c -2.47,-19.22 -7.97,-58.19 -10.7,-77.4 -23.87,33.49 -47.47,67.52 -71.09,101.28 -10.98,-55.44 -26.07,-109.78 -44.74,-163.02 -18.65,62.02 -33.2,125.43 -45.27,189.36 -10.16,-4.93 -29.93,-14.26 -40.08,-19.21 -8.5,90.02 -88.09,23.05 -136.94,16.47 9.33,33.75 18.66,67.24 28.27,100.72 -45.56,-13.72 -92.49,-24.15 -139.97,-28.27 13.46,13.46 40.63,40.34 54.07,53.79 -52.42,24.42 -110.6,28.81 -167.13,36.22 15.65,9.05 46.39,26.9 61.76,35.95 -5.77,7.69 -17.02,23.34 -22.5,31.29 -35.14,4.94 -70.54,9.6 -105.66,14.27 l -3.02,20.04 48.57,13.99 c -84.25,59.01 -232.73,62.86 -240.69,194.03 32.11,-20.58 63.68,-41.44 96.07,-61.2 -15.65,69.44 -55.45,128.99 -87.01,191.84 28.27,-20.31 56.54,-39.8 85.62,-59.01 -22.78,106.49 -24.7,229.43 68.61,303.8 4.94,-29.36 14.55,-87.82 19.48,-116.91 23.06,21.13 45.29,42.82 66.97,65.59 12.07,-89.19 29.92,-194.03 113.08,-245.07 0.27,30.73 1.1,92.21 1.37,123.23 38.96,-44.74 78.77,-89.19 121.02,-130.91 4.12,14.82 12.07,44.18 16.19,58.73 96.05,-59 191.01,-121.03 274.72,-197.33 -0.27,20.04 -0.56,60.11 -0.82,80.14 105.66,-44.46 206.65,-97.97 302.15,-161.37 0.55,25.52 1.65,76.29 1.92,101.82 49.12,-33.75 90.29,-76.29 132.56,-117.74 0.54,23.05 1.65,68.89 2.2,91.94 146,-46.11 273.07,-156.16 430.04,-159.73 3.57,19.49 10.16,59.01 13.72,78.77 36.5,-35.67 78.22,-64.77 126.25,-82.33 2.47,69.15 1.36,138.31 8.5,207.19 50.77,-60.37 90.84,-130.36 152.59,-180.86 9.34,63.4 10.44,127.62 14,191.56 40.34,-37.32 113.34,-67.78 108.67,-132.55 8.24,-79.31 -60.1,-130.36 -109.77,-179.21 15.65,-5.22 46.65,-15.92 62.3,-21.14 -62.02,-45.55 -137.77,-73 -188.81,-132.28 24.7,-2.19 74.65,-6.31 99.62,-8.23 -94.41,-58.18 -208.3,-62.57 -315.33,-76.56 28.54,-25.26 57.35,-50.23 85.9,-75.48 -74.1,0.55 -148.48,1.1 -222.85,0 9.34,-15.37 27.72,-45.83 37.06,-60.92 -83.71,26.62 -167.13,54.62 -251.12,80.96 -0.55,-11.8 -1.37,-35.96 -1.92,-47.76 -69.71,14.27 -146.83,86.73 -214.89,32.39 -38.15,29.63 -75.19,60.37 -114.44,88.64 6.59,-66.14 40.07,-124.05 61.2,-185.53 -65.04,63.12 -95.5,151.77 -159.72,215.99 z"
         id="path49" />
    </g>
    <path
       class="fil2"
       d="m 1655.0476,-31.503716 c 10.3131,-3.7151 21.459,-2.3219 32.198,-2.5926 13.9712,-0.4647 27.3802,4.9538 39.2228,11.9588 13.6806,9.5594 22.7168,23.9365999 33.5532,36.3199 8.8438,10.6424 15.5963,22.9883 25.5618,32.6824 5.5538,5.3409 16.6799,5.9988 15.9833,15.7514 -12.5976,1.7796 -25.3495,3.4831 -38.0819,2.0503 -6.8498,-0.8122 -14.3772,-1.9925 -19.3698,-7.2171 -0.1727,-6.5403 0.8137,-13.1003 -0.1348,-19.6406 -1.1033,-7.2757 0.8899,-14.5514 0.3864,-21.8271 -0.9278,-8.3015001 -8.0879,-13.6030001 -14.3186,-18.1698001 7.5273,7.4886 15.2099,17.7242001 12.4234,28.9674001 -7.6437,-2.9212 -11.4362,-11.552 -18.9249,-15.0929 7.1789,9.2873 16.7962,17.3569 19.8726,29.1598 1.6639,5.5349 -1.1994,10.8561 -3.4443,15.7317 -2.5737,-1.6252 -5.1858,-3.2116 -7.5458,-5.1273 0.4251,-2.0123 1.2183,-3.9082 1.9544,-5.7852 -9.6947,-3.6762 -18.7309,-8.9199 -28.5232,-12.4037 -0.7156,-0.8707 -2.1278,-2.5735 -2.8442,-3.4252 -4.411,1.0068 -8.7844,2.0517 -13.1962,3.0381 0.213,-2.2054 0.4456,-4.4109 0.6775,-6.5988 -6.502,4.9539 -14.5513,10.5656 -22.7753,5.7288 0.5606,-3.6382 1.0449,-7.2764 1.4899,-10.9139 -6.5015,6.1532 -11.2614,14.9385 -20.7821,16.7576 -1.2191,-2.3226 -2.4192,-4.6444 -3.6375,-6.9669 -3.2117,5.2641 -6.5989,10.4105 -10.314,15.3453 -2.651,-0.1939 -5.3029,-0.4647 -7.9532,-0.6586 -0.1157,1.4321 -0.3476,4.3158 -0.4639,5.7471 -2.8253,0.2905 -5.6498,0.562 -8.456,0.8708 -5.1463,5.109 -10.0615,10.4302 -14.8989,15.848 -1.5865,0.3088 -3.1927,0.6381 -4.7797,1.0252 l -1.0838,-0.2708 c 0.019,-0.6966 0.078,-2.0891 0.1158,-2.7674 0.445,-0.1742 1.3354,-0.5027 1.7607,-0.6769 0.2713,-7.2369 -0.097,-14.7833 2.9803,-21.5556 1.5865,-4.4899 4.7218,-8.9199 3.7149,-13.8935 -0.4456,-4.9736 -1.6639,-10.1397 0.059,-14.997 3.6185,-11.1846001 12.3841,-19.5235001 20.4721,-27.6319 8.1464,-8.3016 18.0929,-14.9187 29.1033,-18.7691 z"
       id="path53"
       style="clip-rule:evenodd;fill:#fc0101;fill-rule:evenodd;stroke-width:0.0705076;image-rendering:optimizeQuality;shape-rendering:geometricPrecision;text-rendering:geometricPrecision" />
  </g>
</svg>
